<svg xmlns="http://www.w3.org/2000/svg" xmlns:xlink="http://www.w3.org/1999/xlink" width="570" zoomAndPan="magnify" viewBox="0 0 427.5 180.749997" height="241" preserveAspectRatio="xMidYMid meet" version="1.0"><defs><g/><clipPath id="0ad926730e"><path d="M 245.910156 0.417969 L 395.632812 0.417969 L 395.632812 144.816406 L 245.910156 144.816406 Z M 245.910156 0.417969 " clip-rule="nonzero"/></clipPath><clipPath id="e21fb3e3f6"><path d="M 0.046875 2 L 426.957031 2 L 426.957031 166 L 0.046875 166 Z M 0.046875 2 " clip-rule="nonzero"/></clipPath><clipPath id="74e3c53325"><path d="M 83 100 L 344 100 L 344 180.5 L 83 180.5 Z M 83 100 " clip-rule="nonzero"/></clipPath></defs><g clip-path="url(#0ad926730e)"><path fill="#191919" d="M 254.996094 39.964844 C 255.214844 39.296875 255.53125 38.628906 255.914062 38.023438 C 257.207031 35.59375 258.660156 33.410156 260.230469 31.527344 L 260.234375 31.519531 C 260.445312 31.210938 260.726562 30.9375 261.039062 30.75 C 260.777344 31.464844 260.421875 32.148438 259.976562 32.78125 C 258.757812 34.800781 257.316406 36.9375 255.566406 39.324219 C 255.394531 39.550781 255.203125 39.765625 254.996094 39.964844 Z M 247.832031 64.921875 L 247.816406 64.929688 C 247.765625 64.980469 247.722656 65.039062 247.695312 65.109375 C 247.058594 66.722656 246.828125 68.503906 246.679688 70.183594 C 246.574219 71.027344 246.585938 71.875 246.707031 72.707031 C 246.738281 72.667969 246.761719 72.621094 246.78125 72.574219 C 247.320312 70.816406 247.589844 68.992188 247.765625 67.597656 C 247.945312 66.714844 247.972656 65.792969 247.835938 64.925781 Z M 251.46875 56.636719 L 251.535156 56.644531 C 251.621094 56.617188 251.695312 56.578125 251.761719 56.519531 C 252.792969 55.339844 253.617188 53.769531 254.347656 51.585938 C 254.726562 50.695312 254.878906 49.703125 254.789062 48.777344 L 254.738281 48.703125 L 254.574219 48.648438 C 254.46875 48.671875 254.375 48.71875 254.292969 48.789062 C 253.183594 49.972656 252.359375 51.570312 251.695312 53.8125 C 251.347656 54.714844 251.246094 55.703125 251.410156 56.597656 Z M 248.402344 81.035156 C 248.832031 80.058594 249.046875 78.914062 249.007812 77.808594 C 249.085938 77.011719 249.019531 76.195312 248.816406 75.441406 L 248.738281 75.363281 L 248.667969 75.382812 C 248.203125 76.390625 247.980469 77.570312 248.03125 78.714844 C 247.957031 79.519531 248.078125 80.339844 248.371094 81.039062 Z M 250.695312 49.054688 C 250.886719 48.554688 251.066406 48.046875 251.226562 47.535156 C 251.199219 47.609375 251.171875 47.683594 251.148438 47.757812 L 251.144531 47.757812 C 250.535156 49.273438 250.011719 50.828125 249.527344 52.386719 C 249.785156 51.636719 250.050781 50.886719 250.308594 50.148438 C 250.4375 49.785156 250.566406 49.421875 250.695312 49.054688 Z M 245.910156 75.386719 C 245.910156 75.554688 245.914062 75.722656 245.917969 75.894531 C 245.972656 74.636719 246.035156 73.378906 246.09375 72.152344 L 246.113281 71.792969 C 246.1875 71.066406 246.214844 70.335938 246.195312 69.609375 C 246.191406 69.628906 246.191406 69.644531 246.1875 69.664062 C 245.976562 71.617188 245.933594 73.5625 245.910156 75.386719 Z M 250.730469 52.492188 L 250.625 52.53125 C 250.535156 52.613281 250.464844 52.703125 250.40625 52.8125 C 249.539062 54.386719 248.871094 56.304688 248.371094 58.675781 C 248.121094 59.507812 248.015625 60.390625 248.058594 61.234375 L 248.066406 61.246094 L 248.109375 61.21875 C 248.171875 61.140625 248.230469 61.058594 248.28125 60.972656 C 249.191406 59.050781 249.820312 56.976562 250.3125 55.199219 C 250.597656 54.332031 250.746094 53.398438 250.742188 52.503906 Z M 255.25 40.925781 L 255.226562 40.890625 L 255.214844 40.890625 C 255.003906 41.027344 254.824219 41.203125 254.6875 41.417969 L 254.683594 41.421875 C 253.449219 43.226562 252.378906 45.367188 251.507812 47.78125 C 251.167969 48.539062 250.949219 49.363281 250.867188 50.167969 C 251.023438 50.054688 251.152344 49.902344 251.246094 49.726562 C 252.550781 47.601562 253.609375 45.332031 254.46875 43.390625 C 254.851562 42.613281 255.121094 41.761719 255.25 40.925781 Z M 246.777344 77.609375 L 246.742188 77.675781 C 246.46875 79.175781 246.523438 80.71875 246.605469 81.894531 C 246.632812 82.664062 246.730469 83.429688 246.894531 84.171875 C 247.039062 82.730469 247.035156 81.285156 247.011719 80.066406 C 247.039062 79.234375 246.957031 78.40625 246.777344 77.609375 Z M 250.773438 61.933594 L 250.707031 61.910156 C 250.691406 61.90625 250.679688 61.910156 250.664062 61.917969 C 250.628906 61.933594 250.59375 61.957031 250.5625 61.980469 C 249.578125 63.34375 249.230469 65.015625 249.050781 66.15625 C 248.863281 67.003906 248.863281 67.882812 249.046875 68.707031 L 249.144531 68.773438 L 249.195312 68.761719 L 249.257812 68.726562 C 250.136719 67.394531 250.515625 65.847656 250.75 64.648438 C 251 63.773438 251.027344 62.828125 250.820312 61.980469 Z M 247.746094 90.226562 C 247.804688 91.261719 247.964844 92.292969 248.230469 93.300781 C 248.335938 93.796875 248.460938 94.289062 248.613281 94.769531 C 248.496094 93.914062 248.351562 93.050781 248.191406 92.203125 C 248.09375 91.535156 247.945312 90.871094 247.746094 90.226562 Z M 248.96875 88.730469 L 248.933594 88.722656 L 248.882812 88.78125 C 248.746094 89.5625 248.765625 90.394531 248.9375 91.1875 C 249.023438 91.941406 249.234375 92.6875 249.554688 93.355469 L 249.558594 93.359375 L 249.570312 93.359375 C 249.574219 93.359375 249.578125 93.355469 249.578125 93.351562 L 249.597656 93.320312 C 249.722656 92.566406 249.71875 91.761719 249.578125 90.996094 C 249.511719 90.207031 249.300781 89.425781 248.96875 88.730469 Z M 248.011719 57.960938 C 247.96875 58.074219 247.933594 58.1875 247.910156 58.304688 L 247.910156 58.308594 C 247.375 60.363281 246.960938 62.53125 246.671875 64.75 C 246.609375 65.074219 246.558594 65.40625 246.519531 65.734375 C 246.8125 64.101562 247.164062 62.339844 247.632812 60.144531 C 247.792969 59.425781 247.917969 58.691406 248.011719 57.960938 Z M 377.683594 28.027344 C 379.078125 29.824219 380.660156 31.855469 382.511719 33.367188 C 382.539062 33.378906 382.574219 33.390625 382.609375 33.402344 L 382.605469 33.355469 C 381.914062 32.078125 381.097656 30.875 380.390625 29.863281 L 380.019531 29.40625 C 378.652344 27.714844 377.234375 25.96875 375.570312 24.550781 C 375.519531 24.515625 375.460938 24.484375 375.398438 24.457031 L 375.398438 24.492188 C 376.066406 25.792969 376.832031 26.984375 377.683594 28.027344 Z M 371.003906 23.046875 L 370.785156 23.132812 C 370.757812 23.152344 370.726562 23.183594 370.699219 23.222656 C 370.722656 24.863281 371.761719 26.328125 372.675781 27.621094 C 375.367188 31.21875 377.304688 32.109375 378.527344 32.46875 C 378.601562 32.460938 378.691406 32.453125 378.78125 32.414062 L 378.84375 32.371094 L 378.925781 32.257812 C 378.960938 30.875 378.304688 29.417969 376.972656 27.921875 L 376.972656 27.917969 C 375.65625 26.269531 373.667969 23.777344 371.183594 23.042969 Z M 368.726562 18.164062 C 369.386719 18.71875 370.039062 19.300781 370.667969 19.863281 C 371.757812 20.832031 372.882812 21.839844 374.085938 22.714844 L 374.105469 22.726562 C 374.152344 22.765625 374.207031 22.796875 374.261719 22.820312 C 374.253906 22.804688 374.246094 22.789062 374.234375 22.773438 C 373.199219 21.792969 372.128906 20.796875 371.097656 19.832031 L 370.277344 19.066406 C 369.128906 17.976562 367.847656 16.929688 366.355469 15.859375 C 366.355469 15.859375 366.355469 15.859375 366.351562 15.859375 C 367.046875 16.710938 367.84375 17.484375 368.726562 18.164062 Z M 385.015625 39.742188 C 386.0625 41.8125 387.226562 43.976562 388.894531 45.640625 L 388.972656 45.660156 L 388.980469 45.65625 L 389 45.582031 C 388.742188 44.148438 388.183594 42.660156 387.34375 41.148438 L 387.339844 41.148438 C 387.230469 40.9375 387.113281 40.722656 387.003906 40.507812 C 385.996094 38.605469 384.957031 36.636719 383.4375 35.179688 L 383.394531 35.15625 L 383.28125 35.144531 L 383.277344 35.148438 C 383.496094 36.457031 384.078125 37.710938 384.640625 38.925781 C 384.765625 39.195312 384.894531 39.46875 385.015625 39.742188 Z M 389.777344 52.863281 C 389.367188 51.238281 388.355469 48.332031 386.203125 47.121094 C 386.152344 47.113281 386.097656 47.109375 386.042969 47.113281 L 385.699219 47.304688 C 384.859375 49.355469 385.546875 51.789062 386.136719 53.441406 L 386.261719 53.78125 C 386.964844 55.742188 387.761719 57.964844 389.546875 59.027344 C 389.636719 59.042969 389.726562 59.042969 389.808594 59.023438 L 389.90625 58.988281 L 390.152344 58.800781 C 390.972656 56.96875 390.28125 54.597656 389.777344 52.863281 Z M 352.796875 9.296875 C 353.125 9.472656 353.453125 9.65625 353.78125 9.835938 C 355.570312 10.816406 357.417969 11.832031 359.429688 12.304688 C 359.546875 12.324219 359.667969 12.324219 359.789062 12.304688 L 359.898438 12.203125 C 359.148438 11.421875 358.246094 10.71875 357.289062 10.175781 L 357.285156 10.171875 C 355.386719 8.875 353.144531 7.847656 350.792969 7.199219 C 350.667969 7.175781 350.535156 7.164062 350.402344 7.164062 L 350.304688 7.207031 L 350.339844 7.410156 C 351.015625 8.175781 351.867188 8.828125 352.796875 9.296875 Z M 267.398438 22.757812 C 265.023438 25.089844 262.929688 27.683594 261.105469 30.039062 C 262.742188 28.199219 264.445312 26.238281 266.453125 23.882812 C 266.785156 23.523438 267.101562 23.144531 267.398438 22.757812 Z M 302.007812 4.65625 C 304.84375 4.472656 307.765625 3.835938 310.472656 2.808594 C 310.855469 2.671875 311.222656 2.464844 311.535156 2.214844 L 311.601562 2.085938 L 311.601562 2.035156 L 311.554688 1.964844 L 311.433594 1.886719 C 310.71875 1.695312 309.949219 1.664062 309.203125 1.792969 L 309.199219 1.792969 C 306.132812 2.066406 303.453125 2.671875 301.003906 3.644531 C 300.585938 3.789062 300.195312 4.015625 299.875 4.304688 L 299.835938 4.4375 L 299.863281 4.503906 C 300.523438 4.753906 301.28125 4.808594 302.007812 4.65625 Z M 293.539062 6.03125 C 295.496094 5.355469 297.519531 4.652344 299.457031 3.832031 C 299.824219 3.691406 300.175781 3.515625 300.5 3.304688 C 299.832031 3.351562 299.0625 3.539062 298.414062 3.8125 L 298.40625 3.816406 C 295.804688 4.519531 293.3125 5.566406 290.773438 6.671875 C 290.433594 6.808594 290.101562 6.984375 289.796875 7.183594 C 290.390625 7.054688 290.980469 6.898438 291.558594 6.722656 C 292.214844 6.492188 292.878906 6.261719 293.539062 6.03125 Z M 276.320312 15.507812 C 278.085938 14.320312 279.917969 13.097656 281.65625 11.796875 C 282.054688 11.515625 282.4375 11.199219 282.789062 10.863281 C 281.480469 11.417969 280.285156 12.214844 279.28125 12.925781 L 279.28125 12.929688 C 277.78125 13.875 276.355469 14.972656 274.976562 16.035156 L 274.449219 16.441406 C 274.070312 16.722656 273.710938 17.035156 273.375 17.367188 C 273.792969 17.140625 274.207031 16.902344 274.609375 16.65625 C 275.175781 16.269531 275.75 15.890625 276.320312 15.507812 Z M 341.390625 3.738281 C 344.117188 4.785156 346.238281 5.449219 348.273438 5.890625 C 348.417969 5.925781 348.574219 5.9375 348.726562 5.921875 L 348.675781 5.847656 L 348.535156 5.738281 C 347.417969 5.3125 346.261719 4.886719 344.996094 4.429688 C 342.859375 3.640625 341.066406 3.09375 339.355469 2.71875 C 339.195312 2.675781 339.027344 2.660156 338.875 2.671875 L 338.816406 2.691406 L 338.816406 2.695312 C 339.609375 3.148438 340.496094 3.507812 341.390625 3.738281 Z M 322.511719 1.753906 C 324.964844 1.988281 327.503906 2.234375 329.980469 1.953125 C 330.28125 1.933594 330.5625 1.835938 330.796875 1.667969 L 330.804688 1.648438 L 330.792969 1.609375 C 329.972656 1.28125 329.066406 1.046875 328.179688 0.933594 L 328.175781 0.933594 C 325.8125 0.507812 323.136719 0.4375 320.433594 0.726562 C 320.136719 0.742188 319.84375 0.820312 319.585938 0.949219 L 319.574219 1 C 320.300781 1.417969 321.140625 1.664062 322 1.703125 Z M 312.957031 1.066406 C 314.707031 0.910156 316.511719 0.746094 318.273438 0.503906 C 318.4375 0.484375 318.597656 0.457031 318.753906 0.417969 C 314.945312 0.554688 311.734375 0.859375 308.722656 1.371094 C 309.308594 1.363281 309.898438 1.335938 310.484375 1.296875 C 311.304688 1.214844 312.144531 1.140625 312.957031 1.066406 Z M 273.257812 86.792969 C 273.234375 86.839844 273.230469 86.882812 273.246094 86.921875 L 273.253906 86.921875 C 273.265625 86.914062 273.28125 86.894531 273.292969 86.871094 C 273.316406 86.824219 273.316406 86.78125 273.300781 86.742188 L 273.292969 86.742188 C 273.285156 86.75 273.265625 86.769531 273.257812 86.792969 Z M 280.289062 73.257812 L 280.265625 73.246094 C 280.21875 73.257812 280.183594 73.285156 280.160156 73.328125 C 280.125 73.390625 280.117188 73.457031 280.140625 73.515625 L 280.15625 73.527344 L 280.164062 73.527344 C 280.210938 73.515625 280.246094 73.488281 280.269531 73.445312 C 280.304688 73.382812 280.3125 73.320312 280.289062 73.257812 Z M 274.792969 22.402344 C 274.457031 22.304688 274.09375 22.324219 273.757812 22.460938 C 271.097656 23.605469 269.160156 25.757812 268.003906 27.359375 C 267.378906 28.101562 267.011719 29.007812 266.964844 29.921875 L 267.148438 30.167969 L 267.167969 30.175781 L 267.484375 30.238281 C 267.671875 30.207031 267.855469 30.164062 268.035156 30.113281 C 270.046875 29.246094 271.953125 27.652344 273.855469 25.246094 C 274.535156 24.515625 274.949219 23.566406 274.988281 22.628906 L 274.839844 22.425781 Z M 280.867188 53.171875 L 280.75 53.078125 L 280.609375 53.035156 C 280.160156 53.0625 279.785156 53.3125 279.554688 53.734375 C 279.339844 54.058594 279.265625 54.429688 279.351562 54.792969 L 279.433594 54.929688 C 279.460938 54.957031 279.5 54.988281 279.539062 55.011719 L 279.675781 55.054688 C 280.125 55.019531 280.5 54.773438 280.734375 54.367188 C 280.957031 54.042969 281.03125 53.667969 280.945312 53.300781 Z M 392.832031 66.882812 C 392.527344 64.855469 392.074219 62.589844 390.566406 61.300781 L 390.308594 61.277344 L 390.292969 61.28125 C 388.960938 62.902344 389.210938 65.820312 389.515625 67.875 C 389.8125 69.953125 390.375 71.609375 391.242188 72.9375 C 391.339844 73.058594 391.464844 73.15625 391.605469 73.222656 L 391.960938 73.246094 C 393.242188 71.667969 393.011719 68.980469 392.84375 67.011719 Z M 272.867188 48.578125 L 272.609375 48.554688 C 271.765625 48.800781 271.113281 49.359375 270.71875 50.171875 C 270.261719 50.863281 270.203125 51.609375 270.546875 52.28125 C 270.605469 52.328125 270.671875 52.367188 270.746094 52.390625 L 271.007812 52.417969 C 271.828125 52.183594 272.5 51.617188 272.898438 50.828125 C 273.441406 50.015625 273.425781 49.199219 272.867188 48.578125 Z M 273.78125 32.824219 L 273.339844 32.753906 C 271.742188 33.105469 270.242188 34.332031 269.109375 36.207031 C 268.394531 37.15625 268.222656 38.253906 268.625 39.234375 C 268.78125 39.34375 268.960938 39.398438 269.160156 39.382812 C 270.71875 39.015625 272.1875 37.839844 273.390625 35.992188 C 274.101562 35.105469 274.347656 34.03125 274.066406 33.039062 Z M 282.152344 34.957031 C 282.050781 34.886719 281.929688 34.828125 281.796875 34.792969 C 281.773438 34.792969 281.75 34.792969 281.726562 34.792969 C 280.339844 34.792969 279.042969 35.558594 278.15625 36.898438 C 277.265625 38.046875 277.285156 39.113281 278.210938 39.902344 C 278.230469 39.902344 278.246094 39.902344 278.265625 39.902344 C 279.621094 39.902344 280.882812 39.167969 281.820312 37.824219 C 282.464844 37.050781 282.671875 36.140625 282.410156 35.25 Z M 290.542969 39.257812 C 289.597656 39.078125 288.714844 39.449219 288.105469 40.277344 C 287.683594 40.789062 287.539062 41.414062 287.691406 42.03125 L 287.839844 42.265625 L 288.066406 42.429688 C 289.007812 42.609375 289.886719 42.246094 290.488281 41.425781 C 290.847656 41 291.027344 40.488281 291.011719 39.949219 C 290.992188 39.75 290.910156 39.570312 290.777344 39.425781 Z M 251.554688 102.113281 C 251.589844 102.402344 251.660156 102.6875 251.761719 102.957031 C 251.835938 103.21875 251.925781 103.472656 252.03125 103.714844 C 251.980469 103.449219 251.914062 103.1875 251.835938 102.929688 C 251.761719 102.652344 251.667969 102.378906 251.554688 102.113281 Z M 293.558594 12.734375 L 293.476562 12.371094 L 293.320312 12.152344 C 292.847656 11.890625 292.300781 11.789062 291.746094 11.855469 L 291.742188 11.855469 C 289.175781 12.109375 286.433594 13.445312 284.21875 15.523438 C 283.402344 16.160156 282.953125 17.035156 282.949219 17.988281 C 283.3125 18.449219 283.863281 18.644531 284.496094 18.535156 C 287.148438 18.179688 289.871094 16.882812 292.160156 14.875 C 292.875 14.320312 293.355469 13.582031 293.558594 12.734375 Z M 283.375 21.34375 C 283.066406 21.121094 282.707031 21.027344 282.3125 21.074219 C 280.210938 21.371094 278.03125 22.757812 276.335938 24.882812 C 275.445312 25.773438 275.132812 26.882812 275.46875 27.933594 L 275.855469 28.15625 C 276.042969 28.1875 276.238281 28.203125 276.433594 28.203125 C 278.46875 27.914062 280.664062 26.546875 282.449219 24.453125 C 283.183594 23.695312 283.59375 22.722656 283.601562 21.714844 L 283.464844 21.441406 Z M 287.382812 100.910156 C 287.398438 100.90625 287.40625 100.902344 287.410156 100.894531 L 287.382812 100.902344 Z M 289.109375 59.515625 L 289.078125 59.496094 L 289.039062 59.492188 C 288.9375 59.503906 288.855469 59.558594 288.796875 59.644531 C 288.71875 59.75 288.703125 59.867188 288.75 59.980469 L 288.773438 60.007812 L 288.804688 60.023438 L 288.84375 60.03125 C 288.945312 60.015625 289.027344 59.964844 289.085938 59.875 C 289.164062 59.773438 289.179688 59.652344 289.136719 59.539062 Z M 265.550781 63.015625 L 265.394531 63 C 264.890625 63.1875 264.507812 63.589844 264.324219 64.125 C 264.121094 64.5625 264.078125 65.027344 264.195312 65.476562 L 264.292969 65.625 C 264.320312 65.652344 264.359375 65.679688 264.40625 65.699219 L 264.550781 65.71875 C 265.046875 65.53125 265.421875 65.136719 265.613281 64.609375 C 265.824219 64.164062 265.871094 63.691406 265.753906 63.226562 C 265.714844 63.128906 265.648438 63.058594 265.550781 63.015625 Z M 265.816406 46.289062 C 265.742188 46.25 265.65625 46.230469 265.578125 46.234375 C 264.417969 46.664062 263.476562 47.65625 262.933594 49.03125 C 262.425781 49.867188 262.175781 50.992188 262.96875 51.6875 C 264.121094 51.40625 265.082031 50.492188 265.6875 49.109375 C 266.242188 48.167969 266.289062 47.144531 265.816406 46.289062 Z M 260.3125 77.3125 L 260.230469 77.296875 L 260.136719 77.328125 C 259.894531 77.515625 259.730469 77.789062 259.664062 78.097656 C 259.511719 78.515625 259.566406 78.929688 259.804688 79.242188 L 259.871094 79.253906 L 259.957031 79.230469 C 260.195312 79.039062 260.355469 78.777344 260.429688 78.472656 C 260.570312 78.089844 260.554688 77.703125 260.386719 77.367188 Z M 262.566406 94.539062 L 262.550781 94.546875 C 262.507812 94.59375 262.484375 94.648438 262.472656 94.714844 C 262.445312 94.828125 262.457031 94.941406 262.503906 95.042969 L 262.519531 95.058594 L 262.523438 95.058594 L 262.539062 95.050781 C 262.578125 95.003906 262.605469 94.949219 262.617188 94.886719 C 262.644531 94.769531 262.636719 94.65625 262.585938 94.554688 Z M 259.121094 62.675781 C 259.265625 62.28125 259.34375 61.863281 259.34375 61.445312 C 259.265625 61.859375 259.1875 62.273438 259.113281 62.691406 C 259.117188 62.6875 259.117188 62.683594 259.121094 62.675781 Z M 271.015625 115.285156 C 271.011719 115.292969 271.015625 115.300781 271.019531 115.304688 L 271.042969 115.285156 L 271.027344 115.265625 C 271.023438 115.269531 271.015625 115.277344 271.015625 115.285156 Z M 272.648438 67.332031 L 272.582031 67.3125 L 272.503906 67.316406 C 272.296875 67.394531 272.144531 67.542969 272.054688 67.753906 C 271.921875 67.996094 271.90625 68.257812 272.007812 68.496094 L 272.0625 68.542969 L 272.125 68.5625 C 272.367188 68.527344 272.554688 68.371094 272.65625 68.125 C 272.792969 67.878906 272.808594 67.621094 272.703125 67.382812 Z M 271.09375 115.28125 L 271.113281 115.292969 C 271.113281 115.285156 271.109375 115.277344 271.105469 115.273438 Z M 266.523438 81.371094 L 266.496094 81.359375 L 266.460938 81.363281 C 266.351562 81.421875 266.269531 81.515625 266.230469 81.644531 C 266.160156 81.808594 266.164062 81.976562 266.230469 82.128906 L 266.257812 82.152344 L 266.289062 82.164062 L 266.320312 82.164062 C 266.433594 82.105469 266.511719 82.007812 266.550781 81.886719 C 266.621094 81.71875 266.621094 81.546875 266.550781 81.394531 Z M 269.609375 123.597656 L 269.621094 123.585938 L 269.605469 123.585938 C 269.605469 123.589844 269.609375 123.59375 269.609375 123.597656 Z M 266.429688 33.519531 L 265.976562 33.597656 C 264.320312 34.40625 262.878906 35.960938 261.691406 38.21875 C 261.074219 39.140625 260.859375 40.183594 261.089844 41.171875 L 261.339844 41.292969 C 261.472656 41.292969 261.601562 41.273438 261.726562 41.234375 C 263.285156 40.425781 264.6875 38.925781 266.007812 36.65625 C 266.554688 35.828125 266.851562 34.886719 266.875 33.925781 L 266.710938 33.628906 C 266.628906 33.5625 266.53125 33.523438 266.429688 33.519531 Z M 254.769531 60.484375 C 253.875 61.25 253.277344 62.34375 253.042969 63.644531 C 252.726562 64.542969 252.785156 65.484375 253.203125 66.234375 L 253.296875 66.265625 L 253.378906 66.269531 L 253.625 66.179688 C 254.421875 65.375 254.9375 64.347656 255.117188 63.207031 C 255.425781 62.257812 255.359375 61.273438 254.941406 60.492188 Z M 323.210938 3.535156 L 323.238281 3.3125 C 322.675781 2.605469 321.753906 2.1875 320.757812 2.1875 C 320.738281 2.1875 320.71875 2.1875 320.699219 2.1875 L 320.691406 2.1875 C 317.347656 1.796875 314.453125 2.058594 312.082031 2.960938 C 311.570312 3.128906 311.160156 3.449219 310.894531 3.886719 L 310.867188 4.054688 L 310.886719 4.160156 L 311.023438 4.355469 C 311.683594 4.761719 312.445312 5.03125 313.234375 5.136719 C 316.164062 5.558594 319.304688 5.265625 322.078125 4.316406 C 322.535156 4.171875 322.925781 3.902344 323.210938 3.535156 Z M 324.867188 8.285156 C 327.902344 9.417969 331.363281 9.542969 333.902344 8.601562 C 334.355469 8.441406 334.726562 8.144531 334.980469 7.75 L 335.050781 7.515625 C 334.71875 6.335938 333.800781 5.507812 332.464844 5.183594 L 332.460938 5.183594 C 329.203125 4.117188 326.078125 4.007812 323.65625 4.867188 C 322.859375 5.121094 322.425781 5.667969 322.429688 6.417969 L 322.554688 6.691406 C 323.167969 7.410156 323.96875 7.960938 324.867188 8.285156 Z M 333.761719 4.714844 C 336.46875 5.550781 339.113281 6.277344 341.761719 6.003906 C 341.953125 5.972656 342.144531 5.914062 342.324219 5.832031 C 342.433594 5.777344 342.527344 5.691406 342.578125 5.585938 L 342.546875 5.414062 C 341.824219 4.71875 340.925781 4.1875 339.949219 3.871094 L 339.945312 3.871094 C 337.289062 2.886719 334.523438 2.449219 332.140625 2.640625 C 331.875 2.667969 331.621094 2.742188 331.390625 2.867188 C 331.359375 2.890625 331.328125 2.917969 331.300781 2.953125 L 331.28125 3.167969 C 331.910156 3.90625 332.789062 4.457031 333.761719 4.714844 Z M 336.460938 14.132812 C 338.597656 15.4375 342.183594 16.582031 345.261719 15.503906 C 346.03125 15.109375 346.421875 14.5625 346.410156 13.875 C 346.398438 12.714844 345.21875 11.460938 344.085938 10.914062 L 344.082031 10.914062 C 341.082031 9.160156 337.84375 8.636719 335.425781 9.507812 C 334.671875 9.796875 334.210938 10.375 334.128906 11.144531 C 334.421875 12.390625 335.226562 13.421875 336.460938 14.132812 Z M 302.308594 10.445312 C 302.808594 10.746094 303.355469 10.929688 303.9375 10.992188 C 306.855469 11.464844 310.179688 10.792969 312.835938 9.199219 C 313.492188 8.84375 313.980469 8.296875 314.25 7.621094 L 314.269531 7.441406 L 314.132812 6.90625 L 314.042969 6.769531 C 313.453125 6.304688 312.738281 6.015625 311.96875 5.933594 L 311.964844 5.933594 C 309.121094 5.488281 305.859375 6.179688 303.246094 7.789062 C 302.574219 8.167969 302.085938 8.738281 301.832031 9.4375 C 301.808594 9.621094 301.839844 9.820312 301.921875 9.996094 Z M 292.496094 7.28125 L 292.488281 7.230469 L 292.425781 7.152344 L 292.078125 7.085938 C 291.550781 7.171875 291.027344 7.300781 290.523438 7.472656 C 288.03125 8.234375 285.378906 9.589844 282.855469 11.398438 C 282.328125 11.722656 281.875 12.179688 281.574219 12.691406 L 281.582031 12.769531 L 281.609375 12.800781 C 282.160156 12.84375 282.753906 12.75 283.28125 12.535156 C 286.421875 11.347656 289.007812 10.042969 291.1875 8.554688 C 291.738281 8.257812 292.210938 7.792969 292.496094 7.28125 Z M 291.40625 10.34375 C 291.957031 10.542969 292.5625 10.621094 293.160156 10.5625 C 296.042969 10.300781 299.15625 9.222656 301.699219 7.609375 C 302.339844 7.269531 302.832031 6.710938 303.066406 6.074219 L 302.933594 5.773438 L 302.527344 5.570312 C 301.992188 5.445312 301.425781 5.394531 300.863281 5.421875 C 297.679688 5.851562 294.804688 6.875 292.539062 8.378906 C 291.863281 8.753906 291.390625 9.335938 291.203125 10.023438 L 291.277344 10.230469 Z M 380.765625 49.011719 C 380.742188 49.011719 380.71875 49.011719 380.695312 49.011719 C 378.609375 50.777344 379.742188 54.609375 380.140625 55.746094 C 380.722656 57.527344 382.054688 60.484375 384.410156 60.3125 C 386.371094 58.464844 385.425781 54.820312 385.089844 53.742188 C 383.929688 50.558594 382.515625 49.011719 380.765625 49.011719 Z M 383.980469 102.046875 C 384.023438 102.148438 384.089844 102.242188 384.179688 102.3125 L 384.421875 102.375 L 384.789062 102.269531 C 385.929688 101.277344 386.726562 99.6875 387.226562 97.410156 L 387.226562 97.402344 C 387.605469 96.324219 387.546875 95.214844 387.058594 94.277344 C 386.984375 94.214844 386.898438 94.179688 386.800781 94.179688 L 386.417969 94.28125 C 385.183594 95.269531 384.355469 96.949219 383.949219 99.277344 C 383.753906 100.191406 383.765625 101.148438 383.980469 102.046875 Z M 365.03125 23.554688 C 364.832031 23.636719 364.628906 23.746094 364.445312 23.867188 C 363.394531 25.683594 364.625 27.636719 365.863281 29.328125 C 368.820312 33.335938 371.59375 33.585938 372.667969 33.5 C 373.1875 33.144531 373.496094 32.675781 373.585938 32.113281 C 373.757812 31.039062 373.144531 29.589844 371.765625 27.804688 C 369.40625 24.761719 367.203125 23.367188 365.03125 23.554688 Z M 378.25 76.648438 C 378.695312 76.980469 379.222656 77.085938 379.824219 76.96875 C 381.492188 75.632812 381.539062 73.378906 381.28125 71.722656 L 381.28125 71.71875 C 381.164062 70.554688 380.699219 69.574219 380.039062 69.101562 C 379.601562 68.785156 379.089844 68.6875 378.515625 68.8125 C 376.761719 70.242188 376.894531 72.789062 377.125 74.183594 C 377.214844 75.277344 377.625 76.175781 378.25 76.648438 Z M 384.410156 39.707031 C 383.207031 37.289062 381.785156 34.945312 379.5625 34.144531 L 379.175781 34.296875 C 378.453125 36.074219 379.523438 38.109375 380.386719 39.746094 L 380.414062 39.800781 C 381.386719 41.785156 382.953125 44.507812 385.292969 45.253906 C 385.316406 45.253906 385.339844 45.246094 385.367188 45.242188 L 385.632812 45.082031 L 385.652344 45.058594 C 386.214844 43.199219 385.300781 41.429688 384.417969 39.71875 Z M 386.769531 74.609375 C 388.863281 72.730469 388.53125 69.597656 388.289062 68.335938 L 388.289062 68.332031 C 388.0625 66.675781 387.410156 64.550781 385.601562 63.800781 C 385.46875 63.804688 385.34375 63.832031 385.226562 63.882812 C 383.519531 65.359375 383.660156 68.007812 383.925781 70.371094 C 384.058594 71.644531 384.601562 74.589844 386.769531 74.609375 Z M 376.878906 113.039062 L 376.777344 112.9375 L 376.652344 112.917969 C 376.574219 112.925781 376.503906 112.953125 376.433594 113 C 375.664062 113.679688 375.0625 114.5625 374.707031 115.554688 C 374.554688 115.875 374.472656 116.21875 374.464844 116.558594 L 374.523438 116.75 L 374.597656 116.808594 L 374.691406 116.824219 L 374.726562 116.820312 L 374.9375 116.738281 C 375.769531 116.136719 376.394531 115.292969 376.714844 114.296875 L 376.71875 114.292969 C 376.894531 113.894531 376.949219 113.464844 376.886719 113.046875 Z M 362.863281 47.609375 C 362.304688 46.503906 361.339844 45.636719 360.289062 45.292969 C 359.945312 45.179688 359.597656 45.125 359.25 45.125 C 358.742188 45.125 358.238281 45.246094 357.765625 45.492188 C 355.890625 46.910156 355.96875 49.488281 357.015625 51.296875 C 357.992188 53.050781 359.695312 53.976562 361.355469 53.65625 L 362.09375 53.324219 C 363.375 52.328125 364.175781 50.109375 362.863281 47.609375 Z M 359.742188 86.203125 L 359.957031 86.164062 L 360.191406 86.050781 C 360.777344 85.582031 361.023438 84.902344 360.875 84.148438 C 360.820312 83.894531 360.6875 83.675781 360.488281 83.511719 C 360.230469 83.355469 359.949219 83.367188 359.683594 83.546875 C 359.128906 84.039062 358.886719 84.722656 359.003906 85.46875 C 359.0625 85.789062 359.257812 86.039062 359.542969 86.175781 Z M 354.617188 133.652344 C 354.609375 133.667969 354.601562 133.683594 354.59375 133.699219 C 354.601562 133.695312 354.613281 133.691406 354.621094 133.6875 C 354.765625 133.613281 354.894531 133.503906 354.988281 133.367188 C 354.996094 133.351562 355.007812 133.339844 355.011719 133.324219 C 355.003906 133.324219 354.996094 133.328125 354.984375 133.332031 C 354.839844 133.40625 354.710938 133.519531 354.617188 133.652344 Z M 356.378906 72.523438 C 357.28125 71.714844 357.582031 70.613281 357.222656 69.433594 C 357.027344 68.867188 356.625 68.476562 356.058594 68.300781 C 355.964844 68.285156 355.871094 68.277344 355.78125 68.277344 C 355.472656 68.277344 355.179688 68.371094 354.917969 68.554688 C 354.023438 69.382812 353.726562 70.492188 354.097656 71.675781 C 354.300781 72.21875 354.714844 72.613281 355.265625 72.785156 C 355.660156 72.847656 356.046875 72.757812 356.378906 72.523438 Z M 392.574219 53.90625 L 392.773438 54.5625 C 393.078125 55.5625 393.386719 56.578125 393.675781 57.605469 C 393.222656 55.652344 392.652344 53.6875 391.980469 51.777344 C 392.132812 52.304688 392.277344 52.832031 392.417969 53.347656 Z M 392.269531 53.722656 C 392.21875 53.546875 392.167969 53.371094 392.113281 53.195312 C 391.503906 51.128906 390.875 48.996094 389.523438 47.421875 L 389.378906 47.449219 C 389.171875 48.933594 389.632812 50.449219 390.082031 51.917969 C 390.175781 52.226562 390.269531 52.535156 390.355469 52.839844 C 390.878906 54.703125 391.59375 57.25 393.058594 59 L 393.101562 58.996094 C 393.113281 58.988281 393.121094 58.976562 393.128906 58.960938 C 393.289062 57.480469 393.015625 55.816406 392.273438 53.726562 Z M 259.777344 46.53125 L 259.730469 46.519531 C 259.636719 46.507812 259.539062 46.515625 259.445312 46.542969 C 258.234375 47.308594 257.289062 48.644531 256.632812 50.519531 C 256.222656 51.414062 256.125 52.367188 256.355469 53.277344 L 256.542969 53.414062 C 256.625 53.429688 256.710938 53.425781 256.789062 53.402344 C 257.96875 52.628906 258.871094 51.347656 259.554688 49.496094 C 259.992188 48.589844 260.121094 47.582031 259.917969 46.648438 Z M 275.089844 17.15625 L 275.074219 17.054688 L 275.023438 17.035156 C 274.558594 17.171875 274.101562 17.394531 273.699219 17.675781 L 273.695312 17.675781 C 271.492188 19.125 269.34375 21.035156 267.480469 23.195312 C 266.992188 23.691406 266.585938 24.277344 266.292969 24.890625 L 266.304688 24.96875 L 266.417969 24.976562 C 266.773438 24.824219 267.109375 24.640625 267.425781 24.429688 C 269.585938 22.875 271.679688 21.050781 273.824219 18.855469 C 274.347656 18.371094 274.785156 17.785156 275.089844 17.15625 Z M 260.234375 36.3125 C 260.050781 36.355469 259.851562 36.453125 259.6875 36.582031 C 258.195312 37.867188 256.921875 39.707031 255.796875 42.207031 C 255.316406 43.046875 255.085938 44.039062 255.167969 44.941406 L 255.183594 44.953125 L 255.316406 44.972656 C 255.464844 44.925781 255.601562 44.851562 255.722656 44.757812 C 257.554688 43.070312 258.828125 40.765625 259.625 39.175781 C 260.09375 38.347656 260.382812 37.425781 260.457031 36.503906 L 260.324219 36.324219 C 260.296875 36.316406 260.257812 36.3125 260.234375 36.3125 Z M 266.289062 28.085938 C 266.886719 27.386719 267.273438 26.535156 267.394531 25.683594 C 267.390625 25.679688 267.386719 25.675781 267.382812 25.671875 L 267.257812 25.628906 C 266.929688 25.691406 266.609375 25.835938 266.332031 26.039062 C 264.421875 27.480469 262.632812 29.492188 261.152344 31.863281 C 260.632812 32.554688 260.285156 33.382812 260.164062 34.199219 L 260.265625 34.273438 C 260.539062 34.226562 260.800781 34.101562 261.019531 33.914062 C 262.863281 32.453125 264.636719 30.492188 266.289062 28.085938 Z M 275.3125 20.429688 C 278.347656 19.320312 280.878906 17.277344 282.464844 15.757812 C 283.183594 15.210938 283.644531 14.464844 283.773438 13.648438 L 283.75 13.605469 L 283.535156 13.457031 C 283.066406 13.433594 282.597656 13.503906 282.152344 13.675781 L 282.148438 13.675781 C 279.695312 14.539062 277.210938 16.191406 275.15625 18.328125 C 274.46875 18.886719 274.019531 19.683594 273.945312 20.464844 L 274.164062 20.621094 C 274.558594 20.644531 274.945312 20.582031 275.3125 20.429688 Z M 291.695312 22.285156 C 289.453125 21.925781 287.273438 23.367188 285.984375 24.835938 C 285.019531 25.777344 284.769531 26.933594 285.273438 28.085938 C 285.550781 28.421875 285.898438 28.648438 286.3125 28.761719 C 288.246094 29.003906 290.382812 28.066406 292.023438 26.25 C 292.699219 25.597656 293.070312 24.84375 293.066406 24.117188 C 293.0625 23.539062 292.824219 23.015625 292.355469 22.566406 Z M 372.410156 42.542969 C 371.261719 40.332031 368.921875 38.296875 366.5 39.054688 C 364.402344 40.511719 364.800781 43.550781 366.058594 45.761719 C 367.308594 47.96875 369.503906 50.015625 371.90625 49.140625 C 372.398438 48.871094 372.777344 48.46875 373.023438 47.949219 C 373.59375 46.351562 373.378906 44.429688 372.410156 42.542969 Z M 368.820312 127.824219 L 368.886719 127.820312 L 369.078125 127.75 C 369.898438 127.183594 370.597656 126.417969 371.101562 125.542969 L 371.109375 125.535156 C 371.34375 125.214844 371.492188 124.839844 371.539062 124.453125 L 371.511719 124.40625 L 371.398438 124.394531 L 371.203125 124.46875 C 370.371094 125.050781 369.664062 125.832031 369.164062 126.726562 C 368.941406 127.042969 368.804688 127.414062 368.769531 127.777344 L 368.789062 127.8125 C 368.800781 127.816406 368.808594 127.820312 368.820312 127.824219 Z M 377.035156 62.953125 C 378.84375 61.5 378.871094 58.710938 378.125 56.730469 C 377.605469 55.121094 376.085938 52.59375 373.683594 53.308594 C 371.792969 54.804688 371.9375 57.65625 372.636719 59.644531 C 373.160156 61.21875 374.675781 63.679688 377.035156 62.953125 Z M 373.003906 92.140625 C 373.011719 91.851562 372.933594 91.574219 372.777344 91.335938 C 372.699219 91.234375 372.597656 91.167969 372.472656 91.144531 C 372.328125 91.132812 372.191406 91.167969 372.066406 91.246094 C 371.425781 91.761719 371.085938 92.507812 371.109375 93.347656 C 371.101562 93.714844 371.242188 94.039062 371.496094 94.269531 L 371.664062 94.332031 C 371.800781 94.339844 371.929688 94.308594 372.050781 94.226562 C 372.667969 93.714844 373.011719 92.972656 373.003906 92.140625 Z M 371.601562 105.9375 L 371.558594 105.917969 L 371.5 105.917969 L 371.417969 105.953125 C 371.136719 106.183594 370.941406 106.507812 370.867188 106.867188 C 370.828125 107.003906 370.84375 107.136719 370.917969 107.238281 L 370.960938 107.253906 L 371.019531 107.253906 L 371.109375 107.21875 C 371.402344 107 371.601562 106.691406 371.675781 106.324219 C 371.699219 106.210938 371.6875 106.09375 371.644531 105.988281 Z M 361.371094 136.664062 C 361.433594 136.648438 361.492188 136.625 361.546875 136.59375 C 362.398438 136.066406 363.1875 135.429688 363.890625 134.707031 L 363.894531 134.703125 C 364.167969 134.453125 364.402344 134.164062 364.589844 133.847656 L 364.59375 133.835938 L 364.582031 133.808594 L 364.523438 133.8125 L 364.324219 133.886719 C 363.457031 134.402344 362.65625 135.042969 361.953125 135.792969 C 361.683594 136.042969 361.460938 136.339844 361.308594 136.660156 L 361.308594 136.664062 Z M 367.429688 66.878906 C 368.777344 65.792969 369.25 63.824219 368.613281 61.976562 C 368.304688 61.042969 367.703125 60.320312 366.96875 59.992188 C 366.363281 59.71875 365.691406 59.726562 365.027344 60.007812 C 363.710938 61.136719 363.269531 63.082031 363.910156 64.96875 C 364.207031 65.882812 364.792969 66.589844 365.511719 66.910156 C 366.109375 67.175781 366.773438 67.167969 367.429688 66.878906 Z M 367.730469 119.707031 C 367.777344 119.707031 367.824219 119.695312 367.863281 119.671875 C 368.175781 119.441406 368.410156 119.125 368.542969 118.753906 L 368.546875 118.75 C 368.589844 118.648438 368.605469 118.535156 368.589844 118.425781 L 368.566406 118.386719 L 368.53125 118.371094 L 368.472656 118.371094 L 368.375 118.410156 C 368.0625 118.625 367.824219 118.941406 367.703125 119.320312 C 367.640625 119.453125 367.640625 119.582031 367.695312 119.6875 Z M 373.75 125.75 L 373.765625 125.746094 L 373.992188 125.652344 C 375.066406 124.800781 376.054688 123.714844 377.105469 122.230469 L 377.109375 122.226562 C 377.5625 121.667969 377.875 121 378.015625 120.296875 L 377.988281 120.125 L 377.902344 120.09375 C 377.824219 120.105469 377.75 120.132812 377.679688 120.183594 C 376.390625 121.304688 375.375 122.644531 374.554688 123.808594 C 374.144531 124.34375 373.839844 124.964844 373.667969 125.605469 C 373.667969 125.644531 373.679688 125.683594 373.695312 125.722656 Z M 379.761719 90.964844 C 379.984375 91.03125 380.199219 91 380.402344 90.867188 C 381.429688 89.886719 381.992188 88.476562 382.019531 86.796875 L 382.019531 86.789062 C 382.128906 85.867188 381.816406 85.027344 381.171875 84.484375 L 380.835938 84.441406 C 380.71875 84.457031 380.597656 84.5 380.488281 84.5625 C 379.40625 85.503906 378.820312 86.980469 378.847656 88.710938 C 378.824219 89.472656 379.042969 90.1875 379.472656 90.785156 Z M 388.742188 100.863281 L 388.882812 100.855469 L 388.9375 100.824219 C 390.398438 99.144531 391.085938 96.796875 391.402344 95.117188 C 391.714844 93.738281 391.976562 92.128906 391.5625 90.613281 C 391.542969 90.59375 391.523438 90.574219 391.496094 90.5625 L 391.386719 90.546875 L 391.273438 90.578125 C 389.988281 91.964844 389.53125 93.902344 389.09375 95.777344 C 389.027344 96.058594 388.960938 96.335938 388.894531 96.609375 C 388.453125 98.292969 388.367188 99.574219 388.617188 100.761719 Z M 383.980469 113.207031 L 384.070312 113.160156 C 385.304688 111.871094 386.371094 110.128906 387.152344 108.121094 C 387.71875 106.816406 388.054688 105.613281 388.179688 104.441406 L 388.132812 104.308594 L 388.113281 104.289062 L 388.042969 104.292969 L 387.949219 104.332031 C 386.445312 105.851562 385.601562 108.003906 384.921875 109.730469 C 384.347656 110.792969 383.980469 111.960938 383.863281 113.125 L 383.921875 113.214844 Z M 378.480469 104.328125 L 378.738281 104.234375 C 379.617188 103.460938 380.210938 102.417969 380.449219 101.222656 L 380.453125 101.21875 C 380.605469 100.6875 380.554688 100.148438 380.304688 99.660156 L 380.144531 99.527344 L 379.941406 99.5 C 379.855469 99.519531 379.773438 99.550781 379.695312 99.59375 C 378.824219 100.394531 378.238281 101.46875 378.011719 102.679688 C 377.875 103.195312 377.917969 103.730469 378.136719 104.1875 L 378.289062 104.3125 C 378.351562 104.332031 378.414062 104.335938 378.480469 104.328125 Z M 379.953125 114.769531 L 380.132812 114.824219 C 380.226562 114.804688 380.316406 114.769531 380.402344 114.722656 C 381.488281 113.761719 382.398438 112.421875 383.171875 110.628906 L 383.175781 110.621094 C 383.570312 109.898438 383.753906 109.09375 383.695312 108.296875 L 383.585938 108.066406 L 383.464844 108 C 383.351562 107.988281 383.242188 108.023438 383.148438 108.085938 C 381.960938 109.132812 381.003906 110.570312 380.3125 112.34375 C 379.910156 113.109375 379.777344 113.960938 379.933594 114.75 Z M 387.128906 79.277344 C 385.832031 80.433594 385.207031 82.390625 385.265625 85.09375 C 385.132812 86.578125 385.441406 87.835938 386.160156 88.742188 L 386.457031 88.835938 C 386.59375 88.8125 386.726562 88.777344 386.855469 88.730469 C 388.640625 87.488281 388.929688 85.070312 388.980469 83.105469 L 388.980469 83.101562 C 389.070312 82.019531 388.964844 80.488281 387.96875 79.347656 C 387.695312 79.183594 387.410156 79.15625 387.128906 79.277344 Z M 353.96875 15.308594 C 353.859375 16.433594 355.078125 17.789062 356.117188 18.726562 C 357.601562 20.058594 360.566406 22.261719 363.703125 22.066406 C 364.207031 21.757812 364.476562 21.347656 364.5 20.847656 C 364.558594 19.722656 363.394531 18.3125 362.289062 17.476562 L 362.285156 17.476562 C 359.480469 15.054688 357.039062 13.953125 354.816406 14.109375 C 354.296875 14.429688 354.011719 14.832031 353.96875 15.308594 Z M 367.816406 17.921875 C 365.890625 16.316406 363.8125 14.6875 361.449219 14 C 361.328125 13.980469 361.207031 13.984375 361.078125 14.007812 L 360.964844 14.089844 L 360.941406 14.15625 L 361.007812 14.480469 C 361.605469 15.566406 362.390625 16.527344 363.34375 17.328125 C 365.050781 18.839844 367.328125 20.65625 369.789062 21.277344 C 369.890625 21.292969 370 21.285156 370.105469 21.257812 L 370.203125 21.105469 C 369.757812 20 368.976562 18.957031 367.816406 17.921875 Z M 370.523438 75.40625 C 370.300781 75.40625 370.082031 75.46875 369.878906 75.601562 C 368.878906 76.507812 368.492188 77.785156 368.796875 79.1875 C 368.875 79.695312 369.097656 80.15625 369.441406 80.527344 C 369.734375 80.792969 370.097656 80.898438 370.488281 80.820312 L 370.878906 80.660156 C 371.882812 79.8125 372.296875 78.523438 372.019531 77.117188 C 371.890625 76.273438 371.398438 75.667969 370.632812 75.410156 C 370.597656 75.40625 370.5625 75.40625 370.523438 75.40625 Z M 362.382812 130.421875 L 362.386719 130.421875 C 362.441406 130.421875 362.496094 130.40625 362.546875 130.375 C 362.980469 130.121094 363.355469 129.761719 363.632812 129.335938 L 363.632812 129.332031 C 363.710938 129.222656 363.765625 129.09375 363.785156 128.960938 L 363.773438 128.921875 L 363.746094 128.90625 C 363.730469 128.902344 363.714844 128.90625 363.695312 128.910156 L 363.574219 128.957031 C 363.152344 129.214844 362.78125 129.578125 362.507812 130.003906 C 362.429688 130.117188 362.375 130.242188 362.355469 130.375 L 362.363281 130.410156 Z M 373.996094 35.351562 C 373.941406 35.351562 373.886719 35.351562 373.832031 35.355469 C 373.648438 35.410156 373.472656 35.523438 373.328125 35.675781 C 372.101562 37.652344 373.054688 40.125 374.074219 41.84375 C 375.335938 44.117188 377.105469 46.695312 379.628906 46.429688 C 381.5 45.074219 380.578125 42.207031 379.476562 40.035156 C 378.40625 37.679688 376.308594 35.351562 373.996094 35.351562 Z M 392.203125 75.988281 L 392.074219 76.015625 L 392.003906 76.050781 C 390.769531 77.550781 390.625 79.8125 390.5 81.808594 C 390.484375 82.035156 390.472656 82.253906 390.457031 82.472656 C 390.335938 84.472656 390.5625 85.984375 391.175781 87.226562 L 391.359375 87.371094 L 391.539062 87.390625 C 391.558594 87.386719 391.59375 87.375 391.628906 87.359375 L 391.707031 87.308594 C 392.707031 85.878906 393.242188 83.875 393.335938 81.1875 C 393.382812 79.605469 393.328125 77.773438 392.542969 76.171875 C 392.460938 76.070312 392.347656 76.007812 392.203125 75.988281 Z M 364.53125 29.882812 C 362.617188 27.339844 360.4375 26.464844 358.734375 26.464844 C 358.214844 26.464844 357.734375 26.546875 357.324219 26.6875 C 356.585938 27.136719 356.125 27.769531 355.972656 28.5625 C 355.601562 30.449219 357.027344 32.5625 357.476562 33.167969 C 359.101562 35.339844 362.058594 37.242188 364.710938 36.28125 C 365.449219 35.8125 365.902344 35.160156 366.042969 34.351562 C 366.308594 32.832031 365.4375 31.046875 364.53125 29.882812 Z M 351.492188 9.398438 C 349.546875 8.328125 346.625 6.921875 343.746094 7.132812 C 343.5 7.160156 343.265625 7.25 343.070312 7.394531 C 342.996094 7.449219 342.941406 7.519531 342.90625 7.597656 L 342.867188 7.839844 C 343.335938 8.9375 344.1875 9.835938 345.328125 10.441406 C 347.386719 11.648438 350.429688 13.023438 353.203125 12.722656 C 353.386719 12.683594 353.566406 12.621094 353.738281 12.535156 L 353.992188 12.242188 C 354.015625 12.167969 354.023438 12.085938 354.011719 12.007812 C 353.511719 10.921875 352.640625 10.023438 351.492188 9.398438 Z M 356.734375 138.183594 C 356.875 138.078125 357.007812 137.96875 357.132812 137.851562 C 357.246094 137.753906 357.347656 137.632812 357.421875 137.503906 L 357.421875 137.492188 C 357.359375 137.496094 357.296875 137.511719 357.234375 137.542969 C 356.707031 137.785156 356.222656 138.113281 355.796875 138.515625 C 355.679688 138.613281 355.578125 138.734375 355.5 138.859375 L 355.5 138.867188 C 355.566406 138.863281 355.628906 138.847656 355.6875 138.820312 C 356.0625 138.652344 356.414062 138.4375 356.734375 138.183594 Z M 362.339844 98.613281 L 362.339844 98.609375 C 362.339844 98.492188 362.292969 98.40625 362.203125 98.351562 L 362.136719 98.339844 L 362.0625 98.351562 L 361.972656 98.390625 C 361.75 98.5625 361.621094 98.824219 361.628906 99.121094 C 361.632812 99.183594 361.652344 99.242188 361.683594 99.296875 L 361.726562 99.347656 L 361.789062 99.386719 C 361.847656 99.402344 361.921875 99.390625 361.988281 99.347656 C 362.210938 99.167969 362.339844 98.90625 362.339844 98.613281 Z M 354.597656 40.691406 C 355.398438 40.125 355.902344 39.320312 356.046875 38.363281 C 356.230469 37.148438 355.820312 35.75 354.953125 34.621094 C 353.910156 33.273438 352.242188 32.253906 350.53125 32.253906 C 349.847656 32.253906 349.15625 32.417969 348.5 32.789062 C 347.730469 33.335938 347.242188 34.121094 347.089844 35.050781 C 346.894531 36.285156 347.296875 37.722656 348.164062 38.90625 C 350.027344 41.34375 352.8125 41.652344 354.597656 40.691406 Z M 347.445312 22.515625 C 350.496094 25.316406 353.789062 25.542969 355.683594 24.886719 C 356.464844 24.445312 356.898438 23.816406 356.960938 23.019531 C 357.070312 21.585938 355.984375 20.039062 354.929688 19.203125 L 354.925781 19.199219 C 353.320312 17.746094 351 16.445312 348.6875 16.445312 C 348.042969 16.445312 347.394531 16.546875 346.769531 16.773438 C 345.964844 17.148438 345.480469 17.832031 345.402344 18.699219 C 345.539062 20.097656 346.226562 21.386719 347.445312 22.515625 Z M 317.730469 64.457031 L 317.65625 64.417969 C 317.519531 64.386719 317.382812 64.425781 317.269531 64.539062 C 317.101562 64.722656 317.070312 64.929688 317.183594 65.144531 L 317.238281 65.195312 L 317.304688 65.230469 C 317.453125 65.265625 317.585938 65.226562 317.699219 65.113281 C 317.867188 64.933594 317.898438 64.722656 317.785156 64.511719 Z M 318.566406 42.058594 C 317.917969 42.695312 317.757812 43.507812 318.109375 44.34375 L 318.359375 44.652344 C 319.269531 45.277344 320.242188 45.21875 321.097656 44.484375 C 321.894531 43.664062 321.972656 42.738281 321.316406 41.878906 C 320.390625 41.257812 319.414062 41.324219 318.566406 42.058594 Z M 320.058594 98.648438 C 320.027344 98.679688 320.015625 98.714844 320.027344 98.753906 L 320.035156 98.757812 L 320.046875 98.761719 C 320.046875 98.757812 320.058594 98.753906 320.070312 98.742188 C 320.101562 98.714844 320.109375 98.679688 320.101562 98.640625 L 320.085938 98.632812 C 320.085938 98.632812 320.070312 98.640625 320.058594 98.648438 Z M 358.765625 140.113281 C 359.261719 139.824219 359.75 139.535156 360.234375 139.25 L 360.289062 139.21875 C 360.777344 138.929688 361.242188 138.597656 361.671875 138.230469 C 361.304688 138.46875 360.933594 138.710938 360.5625 138.953125 C 359.976562 139.335938 359.375 139.730469 358.765625 140.113281 Z M 370.605469 130.289062 L 370.613281 130.210938 L 370.597656 130.210938 C 370.53125 130.230469 370.46875 130.261719 370.40625 130.296875 C 369.414062 131.0625 368.472656 131.929688 367.566406 132.769531 C 367.386719 132.933594 367.210938 133.101562 367.03125 133.265625 C 366.558594 133.679688 366.148438 134.152344 365.808594 134.667969 C 365.871094 134.648438 365.925781 134.621094 365.980469 134.585938 C 367.042969 133.855469 368.144531 132.957031 369.34375 131.847656 C 369.84375 131.394531 370.265625 130.871094 370.605469 130.289062 Z M 325.664062 11.367188 C 325.539062 10.355469 324.6875 9.484375 323.484375 9.144531 L 323.480469 9.144531 C 320.445312 8.042969 317.0625 8.28125 314.644531 9.757812 C 313.585938 10.402344 313.144531 11.390625 313.398438 12.539062 C 313.867188 13.355469 314.585938 13.972656 315.472656 14.320312 C 318.332031 15.363281 321.734375 15.078125 324.351562 13.570312 C 325.289062 13.039062 325.765625 12.238281 325.664062 11.367188 Z M 349.097656 53.925781 C 348.652344 53.925781 348.195312 54.054688 347.75 54.324219 C 346.632812 55.367188 346.378906 56.902344 347.09375 58.324219 C 347.882812 59.625 349.277344 59.992188 350.554688 59.230469 C 351.726562 58.210938 352 56.6875 351.257812 55.261719 C 350.722656 54.386719 349.933594 53.925781 349.097656 53.925781 Z M 323.792969 22.445312 C 322.917969 21.960938 321.9375 21.722656 320.957031 21.722656 C 319.652344 21.722656 318.34375 22.144531 317.28125 22.96875 C 316.464844 23.632812 316 24.601562 316.042969 25.550781 C 316.082031 26.429688 316.539062 27.207031 317.324219 27.734375 C 319.328125 28.917969 321.945312 28.722656 323.835938 27.242188 C 324.75 26.53125 325.195312 25.546875 325.117188 24.402344 C 324.941406 23.597656 324.484375 22.917969 323.792969 22.445312 Z M 353.503906 142.542969 C 353.238281 142.691406 352.992188 142.871094 352.761719 143.066406 C 352.769531 143.0625 352.78125 143.058594 352.789062 143.054688 C 353.699219 142.609375 354.597656 142.113281 355.457031 141.578125 C 355.730469 141.417969 355.992188 141.242188 356.242188 141.046875 L 356.226562 141.054688 C 355.285156 141.488281 354.371094 141.988281 353.503906 142.542969 Z M 313.050781 16.253906 L 313.046875 16.253906 C 312.320312 16.003906 311.550781 15.882812 310.773438 15.882812 C 309.011719 15.882812 307.21875 16.507812 305.824219 17.675781 C 304.953125 18.367188 304.484375 19.378906 304.601562 20.3125 C 304.703125 21.125 305.230469 21.789062 306.089844 22.175781 C 308.40625 22.992188 311.261719 22.429688 313.347656 20.75 C 314.300781 20.03125 314.761719 19.007812 314.652344 17.863281 C 314.40625 17.085938 313.847656 16.523438 313.050781 16.253906 Z M 307.941406 33.746094 C 306.980469 34.746094 306.941406 35.804688 307.835938 36.804688 C 309.089844 37.394531 310.40625 37.164062 311.457031 36.160156 C 312.441406 35.148438 312.484375 34.054688 311.574219 33.085938 C 310.328125 32.503906 308.96875 32.75 307.941406 33.746094 Z M 387.09375 109.492188 C 386.773438 110.246094 386.445312 111.023438 386.160156 111.804688 C 387.210938 110.210938 388.101562 108.515625 388.8125 106.753906 C 388.898438 106.5625 388.984375 106.375 389.070312 106.183594 C 389.648438 104.925781 390.242188 103.625 390.484375 102.257812 C 389.371094 104.109375 388.503906 106.085938 387.800781 107.785156 C 387.578125 108.359375 387.332031 108.9375 387.09375 109.492188 Z M 370.949219 131.007812 C 370.398438 131.484375 369.871094 131.988281 369.363281 132.503906 C 370.429688 131.613281 371.621094 130.582031 372.773438 129.464844 C 373.457031 128.753906 374.117188 128.007812 374.742188 127.242188 C 373.304688 128.46875 372.019531 129.832031 370.949219 131.007812 Z M 381.394531 119.441406 C 382.523438 117.871094 383.558594 116.332031 384.492188 114.921875 C 383.34375 116.503906 382.351562 117.949219 381.472656 119.316406 C 381.449219 119.359375 381.421875 119.398438 381.394531 119.441406 Z M 325.597656 75.917969 C 325.488281 75.910156 325.378906 75.945312 325.292969 76.027344 C 325.113281 76.207031 325.066406 76.417969 325.15625 76.644531 L 325.203125 76.707031 L 325.257812 76.746094 L 325.332031 76.769531 C 325.433594 76.777344 325.546875 76.742188 325.636719 76.664062 C 325.816406 76.484375 325.863281 76.269531 325.765625 76.042969 C 325.726562 75.976562 325.671875 75.9375 325.597656 75.917969 Z M 313.769531 87.390625 L 313.753906 87.386719 C 313.75 87.386719 313.734375 87.394531 313.722656 87.40625 C 313.691406 87.4375 313.683594 87.472656 313.699219 87.511719 L 313.703125 87.519531 L 313.71875 87.519531 C 313.722656 87.519531 313.738281 87.515625 313.75 87.5 C 313.78125 87.46875 313.789062 87.433594 313.773438 87.394531 Z M 382.328125 116.683594 C 380.90625 118.019531 379.804688 119.703125 378.820312 121.324219 C 378.144531 122.164062 377.589844 123.078125 377.167969 124.046875 C 377.207031 124.03125 377.238281 124.015625 377.269531 123.988281 C 378.609375 122.71875 379.800781 121.28125 380.8125 119.714844 L 380.8125 119.710938 C 381.488281 118.773438 382.046875 117.714844 382.425781 116.648438 Z M 343.351562 42.316406 C 342.628906 41.460938 341.664062 41.015625 340.6875 41.015625 C 340.035156 41.015625 339.378906 41.214844 338.785156 41.621094 C 337.433594 42.804688 337.234375 44.671875 338.308594 46.160156 C 339.480469 47.566406 341.34375 47.851562 342.835938 46.851562 C 344.203125 45.671875 344.421875 43.761719 343.351562 42.316406 Z M 344.304688 78.03125 C 344.253906 78.019531 344.207031 78.011719 344.15625 78.011719 C 343.992188 78.011719 343.820312 78.074219 343.636719 78.191406 C 343.183594 78.605469 343.027344 79.164062 343.207031 79.753906 C 343.351562 80.078125 343.613281 80.234375 343.972656 80.207031 C 344.113281 80.179688 344.246094 80.121094 344.363281 80.03125 C 344.828125 79.628906 344.988281 79.078125 344.8125 78.480469 C 344.671875 78.230469 344.5 78.082031 344.304688 78.03125 Z M 338.515625 65.039062 C 338.242188 64.683594 337.933594 64.503906 337.59375 64.503906 C 337.347656 64.503906 337.089844 64.597656 336.820312 64.785156 C 336.257812 65.332031 336.113281 66.0625 336.4375 66.785156 C 336.886719 67.367188 337.488281 67.457031 338.121094 67.03125 C 338.703125 66.472656 338.84375 65.765625 338.515625 65.039062 Z M 338.753906 133.589844 C 338.765625 133.589844 338.773438 133.589844 338.785156 133.585938 L 338.757812 133.578125 Z M 309.097656 108.582031 C 309.101562 108.582031 309.105469 108.578125 309.109375 108.574219 L 309.09375 108.578125 Z M 328.28125 52.523438 C 327.617188 53.207031 327.507812 54.03125 327.984375 54.839844 C 328.640625 55.488281 329.421875 55.523438 330.183594 54.9375 C 330.863281 54.265625 330.972656 53.441406 330.488281 52.625 C 329.804688 51.972656 329.042969 51.9375 328.28125 52.523438 Z M 339.914062 124.148438 L 339.914062 124.152344 C 339.933594 124.15625 339.941406 124.152344 339.945312 124.148438 Z M 336.636719 101.066406 C 336.625 101.066406 336.597656 101.078125 336.574219 101.09375 C 336.503906 101.148438 336.472656 101.222656 336.484375 101.308594 L 336.515625 101.347656 L 336.539062 101.351562 C 336.554688 101.351562 336.578125 101.34375 336.601562 101.324219 C 336.671875 101.269531 336.703125 101.195312 336.691406 101.109375 L 336.664062 101.070312 Z M 339.898438 124.089844 C 339.894531 124.089844 339.894531 124.089844 339.894531 124.089844 C 339.886719 124.089844 339.882812 124.089844 339.875 124.09375 L 339.898438 124.097656 Z M 332.058594 88.433594 L 332.027344 88.402344 L 331.992188 88.386719 L 331.941406 88.378906 C 331.894531 88.382812 331.84375 88.40625 331.796875 88.441406 C 331.671875 88.554688 331.625 88.703125 331.667969 88.863281 L 331.691406 88.90625 L 331.722656 88.933594 L 331.761719 88.949219 L 331.8125 88.957031 C 331.855469 88.953125 331.910156 88.933594 331.953125 88.894531 C 332.082031 88.78125 332.125 88.636719 332.082031 88.472656 Z M 348.734375 92.140625 L 348.675781 92.097656 L 348.601562 92.070312 L 348.511719 92.070312 C 348.453125 92.078125 348.394531 92.105469 348.335938 92.144531 C 348.097656 92.339844 347.992188 92.617188 348.039062 92.925781 L 348.074219 93.015625 L 348.128906 93.089844 L 348.191406 93.136719 L 348.261719 93.160156 L 348.351562 93.160156 C 348.410156 93.152344 348.472656 93.125 348.527344 93.085938 C 348.765625 92.894531 348.875 92.617188 348.824219 92.308594 C 348.808594 92.246094 348.777344 92.1875 348.734375 92.140625 Z M 349.21875 140.992188 L 349.222656 140.988281 C 349.25 140.960938 349.273438 140.925781 349.292969 140.890625 C 349.269531 140.894531 349.246094 140.902344 349.222656 140.914062 C 348.976562 141.027344 348.757812 141.183594 348.570312 141.378906 C 348.550781 141.402344 348.527344 141.425781 348.507812 141.449219 C 348.527344 141.449219 348.546875 141.441406 348.566406 141.433594 C 348.816406 141.34375 349.039062 141.1875 349.21875 140.992188 Z M 331.101562 30.136719 C 330.167969 30.136719 329.238281 30.425781 328.445312 31.011719 C 327.699219 31.632812 327.265625 32.476562 327.226562 33.386719 C 327.191406 34.28125 327.546875 35.144531 328.230469 35.8125 C 329.808594 37.152344 332.105469 37.25 333.808594 36.042969 C 334.546875 35.441406 334.984375 34.613281 335.035156 33.71875 C 335.085938 32.808594 334.734375 31.921875 334.050781 31.222656 C 333.195312 30.503906 332.148438 30.136719 331.101562 30.136719 Z M 334.828125 15.089844 L 334.824219 15.089844 C 333.378906 14.234375 331.765625 13.804688 330.21875 13.804688 C 328.875 13.804688 327.582031 14.128906 326.480469 14.78125 C 325.582031 15.339844 325.089844 16.171875 325.089844 17.117188 C 325.097656 18.257812 325.800781 19.390625 326.929688 20.078125 C 329.523438 21.628906 332.914062 21.746094 335.363281 20.371094 C 336.289062 19.800781 336.785156 18.941406 336.753906 17.953125 C 336.714844 16.800781 335.976562 15.703125 334.828125 15.089844 Z M 345.488281 23.644531 C 344.257812 22.550781 342.449219 21.707031 340.609375 21.707031 C 339.679688 21.707031 338.746094 21.925781 337.875 22.433594 C 337.074219 22.957031 336.558594 23.734375 336.394531 24.679688 C 336.332031 26.050781 336.90625 27.398438 337.972656 28.367188 C 340.1875 30.335938 343.328125 30.828125 345.613281 29.558594 C 346.742188 28.804688 347.03125 27.792969 347.074219 27.078125 C 347.144531 25.855469 346.539062 24.539062 345.488281 23.644531 Z M 347.960938 144.679688 C 347.875 144.71875 347.789062 144.765625 347.710938 144.816406 C 348.296875 144.632812 348.855469 144.371094 349.367188 144.046875 L 349.371094 144.046875 C 349.503906 143.96875 349.625 143.875 349.730469 143.769531 C 349.703125 143.777344 349.679688 143.785156 349.652344 143.796875 C 349.078125 144.050781 348.507812 144.351562 347.960938 144.679688 Z M 350.886719 105.6875 C 350.886719 105.6875 350.871094 105.695312 350.859375 105.703125 C 350.785156 105.757812 350.746094 105.835938 350.75 105.929688 L 350.773438 105.96875 L 350.792969 105.96875 C 350.792969 105.96875 350.808594 105.964844 350.820312 105.953125 C 350.890625 105.902344 350.929688 105.824219 350.929688 105.734375 L 350.90625 105.6875 Z M 302.097656 12.554688 C 299.578125 12.246094 296.65625 13.222656 294.46875 15.109375 C 293.683594 15.703125 293.222656 16.445312 293.210938 17.15625 C 293.195312 17.722656 293.46875 18.257812 294 18.699219 C 294.25 18.808594 294.515625 18.890625 294.785156 18.933594 C 297.476562 19.347656 300.476562 18.4375 302.609375 16.558594 C 303.535156 15.820312 303.972656 14.796875 303.839844 13.679688 C 303.464844 13.058594 302.84375 12.660156 302.097656 12.554688 Z M 394.773438 74.960938 C 394.238281 76.625 393.964844 78.554688 393.914062 81.03125 C 393.910156 81.457031 393.894531 81.890625 393.878906 82.3125 C 393.832031 83.742188 393.785156 85.21875 394.09375 86.625 L 394.160156 86.691406 L 394.25 86.613281 C 394.996094 84.867188 395.121094 82.941406 395.242188 81.082031 L 395.265625 80.746094 C 395.433594 78.742188 395.609375 76.671875 394.910156 74.828125 Z M 395.082031 67.097656 L 395.023438 67.105469 L 395.082031 67.105469 C 395.082031 67.101562 395.082031 67.101562 395.082031 67.097656 Z M 309.046875 108.550781 L 309.0625 108.546875 L 309.050781 108.535156 C 309.046875 108.539062 309.046875 108.546875 309.046875 108.550781 Z M 308.683594 54.558594 L 308.644531 54.53125 C 308.523438 54.492188 308.410156 54.523438 308.320312 54.625 C 308.226562 54.726562 308.203125 54.84375 308.25 54.96875 L 308.277344 55.003906 L 308.316406 55.035156 C 308.4375 55.070312 308.546875 55.039062 308.636719 54.941406 C 308.730469 54.839844 308.753906 54.722656 308.710938 54.597656 Z M 393.914062 88.792969 C 392.921875 90.847656 392.375 93.121094 392.015625 94.871094 C 391.925781 95.351562 391.824219 95.839844 391.722656 96.308594 C 391.476562 97.480469 391.21875 98.691406 391.167969 99.894531 C 392.21875 98.160156 392.738281 96.117188 393.175781 94.171875 L 393.179688 94.171875 L 393.285156 93.753906 C 393.703125 92.128906 394.132812 90.449219 393.929688 88.78125 Z M 306.191406 76.886719 C 306.195312 76.886719 306.195312 76.882812 306.199219 76.882812 C 306.207031 76.871094 306.210938 76.859375 306.210938 76.847656 C 306.207031 76.851562 306.207031 76.851562 306.207031 76.855469 C 306.195312 76.867188 306.191406 76.878906 306.191406 76.886719 Z M 309.089844 108.578125 L 309.085938 108.582031 C 309.089844 108.582031 309.09375 108.582031 309.097656 108.582031 Z M 299.574219 46.148438 L 299.480469 46.054688 L 299.359375 45.992188 C 299.011719 45.929688 298.6875 46.054688 298.453125 46.347656 C 298.257812 46.570312 298.1875 46.839844 298.242188 47.125 L 298.300781 47.242188 L 298.394531 47.332031 L 298.511719 47.394531 C 298.863281 47.449219 299.1875 47.324219 299.421875 47.039062 C 299.621094 46.816406 299.695312 46.542969 299.636719 46.265625 Z M 394.957031 67.113281 C 394.933594 66.898438 394.910156 66.679688 394.890625 66.457031 C 394.691406 64.570312 394.46875 62.4375 393.394531 60.863281 L 393.371094 60.867188 C 392.757812 62.683594 393.046875 64.796875 393.390625 66.804688 L 393.429688 67.125 C 393.65625 69.035156 393.890625 71.007812 394.710938 72.765625 L 394.816406 72.835938 L 394.851562 72.824219 C 395.457031 71.023438 395.207031 69.039062 394.960938 67.121094 Z M 395.222656 67.230469 C 395.289062 67.847656 395.363281 68.472656 395.433594 69.078125 C 395.5 69.65625 395.570312 70.238281 395.632812 70.824219 C 395.515625 68.945312 395.304688 67.125 395.066406 65.449219 C 395.125 66.035156 395.175781 66.628906 395.222656 67.230469 Z M 301.710938 26.515625 C 301.3125 26.394531 300.902344 26.335938 300.496094 26.335938 C 299.210938 26.335938 297.917969 26.917969 296.925781 27.988281 C 296.121094 28.792969 295.847656 29.8125 296.160156 30.855469 C 296.335938 31.15625 296.605469 31.40625 296.9375 31.5625 C 298.515625 32.0625 300.347656 31.511719 301.714844 30.117188 C 302.570312 29.304688 302.851562 28.28125 302.511719 27.230469 C 302.324219 26.925781 302.050781 26.679688 301.710938 26.515625 Z M 309.097656 108.539062 L 309.089844 108.542969 L 309.089844 108.550781 L 309.105469 108.539062 C 309.101562 108.539062 309.101562 108.539062 309.097656 108.539062 Z M 309.074219 108.527344 L 309.070312 108.527344 L 309.078125 108.542969 L 309.089844 108.53125 C 309.082031 108.527344 309.078125 108.527344 309.074219 108.527344 Z M 309.074219 108.527344 " fill-opacity="1" fill-rule="nonzero"/></g><g clip-path="url(#e21fb3e3f6)"><path stroke-linecap="butt" transform="matrix(0.948715, 0, 0, 0.948715, 22.614456, 31.370549)" fill="none" stroke-linejoin="miter" d="M 56.68315 26.751389 L 19.22295 26.751389 C 18.086545 26.751389 17.18895 27.648985 17.18895 28.789508 L 17.18895 81.961745 C 17.18895 83.102268 18.164776 83.999863 19.22295 83.999863 L 32.065153 83.999863 C 33.143915 83.999863 34.119741 83.102268 34.119741 81.961745 L 34.119741 62.412281 L 52.351634 62.412281 C 53.48804 62.412281 54.389753 61.514685 54.389753 60.357693 L 54.389753 50.39356 C 54.389753 49.236568 53.48804 48.334855 52.351634 48.334855 L 34.119741 48.334855 L 34.119741 40.808228 L 56.68315 40.808228 C 57.741325 40.808228 58.643037 39.910633 58.643037 38.77011 L 58.643037 28.789508 C 58.643037 27.648985 57.741325 26.751389 56.68315 26.751389 Z M 81.626422 26.751389 L 68.866567 26.751389 C 67.726045 26.751389 66.828449 27.648985 66.828449 28.789508 L 66.828449 81.961745 C 66.828449 83.102268 67.726045 83.999863 68.866567 83.999863 L 81.626422 83.999863 C 82.783415 83.999863 83.68101 83.102268 83.68101 81.961745 L 83.68101 28.789508 C 83.68101 27.648985 82.783415 26.751389 81.626422 26.751389 Z M 140.357164 83.999863 C 141.493569 83.999863 142.391165 83.102268 142.391165 81.961745 L 142.391165 28.789508 C 142.391165 27.648985 141.493569 26.751389 140.357164 26.751389 L 127.597309 26.751389 C 126.440317 26.751389 125.538604 27.648985 125.538604 28.789508 L 125.538604 55.865598 C 125.538604 55.865598 109.604226 31.984618 107.887266 29.687103 C 106.170305 27.410175 105.27271 26.751389 103.296353 26.751389 L 93.892188 26.751389 C 92.829896 26.751389 91.85407 27.648985 91.85407 28.789508 L 91.85407 81.961745 C 91.85407 83.102268 92.751665 83.999863 93.892188 83.999863 L 106.730273 83.999863 C 107.809035 83.999863 108.784861 83.102268 108.784861 81.961745 L 108.784861 54.387448 L 127.099102 81.961745 C 127.996698 83.262847 128.894293 83.999863 131.270039 83.999863 Z M 208.562067 81.146498 C 207.820933 79.34719 189.82785 30.18531 189.169064 28.789508 C 188.510278 27.410175 188.032659 26.751389 186.554508 26.751389 L 172.818827 26.751389 C 171.340677 26.751389 170.85894 27.410175 170.282502 28.789508 C 169.623717 30.18531 151.630633 79.166024 150.893617 81.146498 C 150.152483 82.941689 150.971848 83.999863 152.36765 83.999863 L 165.609242 83.999863 C 168.063218 83.999863 168.483194 83.180499 169.302559 81.06415 C 169.463138 80.644174 170.039575 79.009562 170.85894 76.390889 L 188.510278 76.390889 C 189.329643 79.009562 189.910198 80.644174 190.070777 81.06415 C 190.968372 83.180499 191.306 83.999863 193.743507 83.999863 L 207.083916 83.999863 C 208.479719 83.999863 209.220852 82.941689 208.562067 81.146498 Z M 175.351035 62.33405 C 176.829185 57.899599 178.286748 53.246925 179.686668 48.75483 C 181.164818 53.246925 182.622381 57.899599 184.018183 62.33405 Z M 265.481148 83.999863 C 266.621671 83.999863 267.519266 83.102268 267.519266 81.961745 L 267.519266 28.789508 C 267.519266 27.648985 266.621671 26.751389 265.481148 26.751389 L 252.721293 26.751389 C 251.564301 26.751389 250.666705 27.648985 250.666705 28.789508 L 250.666705 55.865598 C 250.666705 55.865598 234.732327 31.984618 233.01125 29.687103 C 231.294289 27.410175 230.396694 26.751389 228.420337 26.751389 L 219.016172 26.751389 C 217.957997 26.751389 216.978054 27.648985 216.978054 28.789508 L 216.978054 81.961745 C 216.978054 83.102268 217.875649 83.999863 219.016172 83.999863 L 231.854257 83.999863 C 232.933019 83.999863 233.912962 83.102268 233.912962 81.961745 L 233.912962 54.387448 L 252.223086 81.961745 C 253.120682 83.262847 254.018277 83.999863 256.394023 83.999863 Z M 319.369815 61.996422 C 317.150531 67.727858 312.658436 70.420644 306.367033 70.420644 C 298.181621 70.420644 292.289607 63.791613 292.289607 55.285043 C 292.289607 46.778474 298.181621 40.17003 306.367033 40.17003 C 312.580205 40.17003 316.989952 42.784585 319.287467 48.334855 C 319.448046 48.837179 320.028601 49.393029 321.004427 49.393029 L 333.924861 49.393029 C 335.164201 49.393029 335.403011 48.334855 335.164201 47.27668 C 331.886742 34.278016 320.50622 25.771446 306.367033 25.771446 C 289.675051 25.771446 275.696443 38.930689 275.696443 55.285043 C 275.696443 71.659984 289.675051 84.897459 306.367033 84.897459 C 320.687386 84.897459 332.047321 76.23031 335.242432 63.054597 C 335.481242 61.996422 335.061266 60.8559 333.924861 60.8559 L 321.165006 60.8559 C 320.26741 60.8559 319.608625 61.255288 319.369815 61.996422 Z M 383.152619 69.922437 L 360.346283 69.922437 L 360.346283 62.412281 L 378.656407 62.412281 C 379.714581 62.412281 380.694525 61.514685 380.694525 60.357693 L 380.694525 50.39356 C 380.694525 49.236568 379.714581 48.334855 378.656407 48.334855 L 360.346283 48.334855 L 360.346283 40.808228 L 382.909692 40.808228 C 383.967866 40.808228 384.94781 39.910633 384.94781 38.77011 L 384.94781 28.789508 C 384.94781 27.648985 383.967866 26.751389 382.909692 26.751389 L 345.53184 26.751389 C 344.391318 26.751389 343.493722 27.648985 343.493722 28.789508 L 343.493722 81.961745 C 343.493722 83.102268 344.391318 83.999863 345.53184 83.999863 L 383.152619 83.999863 C 384.309611 83.999863 385.207207 83.102268 385.207207 81.961745 L 385.207207 71.981142 C 385.207207 70.84062 384.309611 69.922437 383.152619 69.922437 Z M 383.152619 69.922437 " stroke="#000000" stroke-width="10.020121" stroke-opacity="1" stroke-miterlimit="4"/></g><g fill="#ffffff" fill-opacity="1"><g transform="translate(35.036697, 111.06263)"><g><path d="M 41.359375 -54.316406 L 5.820312 -54.316406 C 4.734375 -54.316406 3.878906 -53.464844 3.878906 -52.375 L 3.878906 -1.941406 C 3.878906 -0.855469 4.8125 0 5.820312 0 L 18.003906 0 C 19.011719 0 19.941406 -0.855469 19.941406 -1.941406 L 19.941406 -20.484375 L 37.246094 -20.484375 C 38.332031 -20.484375 39.1875 -21.339844 39.1875 -22.425781 L 39.1875 -31.890625 C 39.1875 -32.976562 38.332031 -33.832031 37.246094 -33.832031 L 19.941406 -33.832031 L 19.941406 -40.96875 L 41.359375 -40.96875 C 42.367188 -40.96875 43.21875 -41.824219 43.21875 -42.910156 L 43.21875 -52.375 C 43.21875 -53.464844 42.367188 -54.316406 41.359375 -54.316406 Z M 41.359375 -54.316406 "/></g></g></g><g fill="#ffffff" fill-opacity="1"><g transform="translate(82.132021, 111.06263)"><g><path d="M 17.925781 -54.316406 L 5.820312 -54.316406 C 4.734375 -54.316406 3.878906 -53.464844 3.878906 -52.375 L 3.878906 -1.941406 C 3.878906 -0.855469 4.734375 0 5.820312 0 L 17.925781 0 C 19.011719 0 19.863281 -0.855469 19.863281 -1.941406 L 19.863281 -52.375 C 19.863281 -53.464844 19.011719 -54.316406 17.925781 -54.316406 Z M 17.925781 -54.316406 "/></g></g></g><g fill="#ffffff" fill-opacity="1"><g transform="translate(105.873643, 111.06263)"><g><path d="M 49.894531 0 C 50.980469 0 51.832031 -0.855469 51.832031 -1.941406 L 51.832031 -52.375 C 51.832031 -53.464844 50.980469 -54.316406 49.894531 -54.316406 L 37.789062 -54.316406 C 36.703125 -54.316406 35.847656 -53.464844 35.847656 -52.375 L 35.847656 -26.691406 C 35.847656 -26.691406 20.71875 -49.351562 19.089844 -51.523438 C 17.457031 -53.695312 16.605469 -54.316406 14.742188 -54.316406 L 5.820312 -54.316406 C 4.8125 -54.316406 3.878906 -53.464844 3.878906 -52.375 L 3.878906 -1.941406 C 3.878906 -0.855469 4.734375 0 5.820312 0 L 18.003906 0 C 19.011719 0 19.941406 -0.855469 19.941406 -1.941406 L 19.941406 -28.089844 L 37.324219 -1.941406 C 38.175781 -0.699219 39.03125 0 41.28125 0 Z M 49.894531 0 "/></g></g></g><g fill="#ffffff" fill-opacity="1"><g transform="translate(161.581132, 111.06263)"><g><path d="M 58.894531 -2.714844 C 58.195312 -4.421875 41.125 -51.058594 40.503906 -52.375 C 39.882812 -53.695312 39.417969 -54.316406 38.023438 -54.316406 L 24.984375 -54.316406 C 23.589844 -54.316406 23.125 -53.695312 22.582031 -52.375 C 21.960938 -51.058594 4.886719 -4.578125 4.191406 -2.714844 C 3.492188 -1.007812 4.269531 0 5.585938 0 L 18.15625 0 C 20.484375 0 20.875 -0.777344 21.648438 -2.792969 C 21.804688 -3.179688 22.347656 -4.734375 23.125 -7.214844 L 39.882812 -7.214844 C 40.660156 -4.734375 41.203125 -3.179688 41.359375 -2.792969 C 42.210938 -0.777344 42.523438 0 44.851562 0 L 57.5 0 C 58.816406 0 59.515625 -1.007812 58.894531 -2.714844 Z M 27.390625 -20.5625 C 28.789062 -24.753906 30.183594 -29.175781 31.503906 -33.445312 C 32.902344 -29.175781 34.296875 -24.753906 35.617188 -20.5625 Z M 27.390625 -20.5625 "/></g></g></g><g fill="#ffffff" fill-opacity="1"><g transform="translate(224.581797, 111.06263)"><g><path d="M 49.894531 0 C 50.980469 0 51.832031 -0.855469 51.832031 -1.941406 L 51.832031 -52.375 C 51.832031 -53.464844 50.980469 -54.316406 49.894531 -54.316406 L 37.789062 -54.316406 C 36.703125 -54.316406 35.847656 -53.464844 35.847656 -52.375 L 35.847656 -26.691406 C 35.847656 -26.691406 20.71875 -49.351562 19.089844 -51.523438 C 17.457031 -53.695312 16.605469 -54.316406 14.742188 -54.316406 L 5.820312 -54.316406 C 4.8125 -54.316406 3.878906 -53.464844 3.878906 -52.375 L 3.878906 -1.941406 C 3.878906 -0.855469 4.734375 0 5.820312 0 L 18.003906 0 C 19.011719 0 19.941406 -0.855469 19.941406 -1.941406 L 19.941406 -28.089844 L 37.324219 -1.941406 C 38.175781 -0.699219 39.03125 0 41.28125 0 Z M 49.894531 0 "/></g></g></g><g fill="#ffffff" fill-opacity="1"><g transform="translate(280.289286, 111.06263)"><g><path d="M 45.316406 -20.875 C 43.21875 -15.441406 38.953125 -12.878906 32.976562 -12.878906 C 25.21875 -12.878906 19.632812 -19.167969 19.632812 -27.234375 C 19.632812 -35.304688 25.21875 -41.589844 32.976562 -41.589844 C 38.875 -41.589844 43.066406 -39.109375 45.238281 -33.832031 C 45.394531 -33.367188 45.9375 -32.824219 46.867188 -32.824219 L 59.128906 -32.824219 C 60.292969 -32.824219 60.523438 -33.832031 60.292969 -34.839844 C 57.1875 -47.179688 46.402344 -55.246094 32.976562 -55.246094 C 17.148438 -55.246094 3.878906 -42.753906 3.878906 -27.234375 C 3.878906 -11.71875 17.148438 0.855469 32.976562 0.855469 C 46.558594 0.855469 57.34375 -7.371094 60.371094 -19.863281 C 60.601562 -20.875 60.214844 -21.960938 59.128906 -21.960938 L 47.023438 -21.960938 C 46.167969 -21.960938 45.546875 -21.570312 45.316406 -20.875 Z M 45.316406 -20.875 "/></g></g></g><g fill="#ffffff" fill-opacity="1"><g transform="translate(344.608926, 111.06263)"><g><path d="M 41.511719 -13.347656 L 19.863281 -13.347656 L 19.863281 -20.484375 L 37.246094 -20.484375 C 38.253906 -20.484375 39.1875 -21.339844 39.1875 -22.425781 L 39.1875 -31.890625 C 39.1875 -32.976562 38.253906 -33.832031 37.246094 -33.832031 L 19.863281 -33.832031 L 19.863281 -40.96875 L 41.28125 -40.96875 C 42.289062 -40.96875 43.21875 -41.824219 43.21875 -42.910156 L 43.21875 -52.375 C 43.21875 -53.464844 42.289062 -54.316406 41.28125 -54.316406 L 5.820312 -54.316406 C 4.734375 -54.316406 3.878906 -53.464844 3.878906 -52.375 L 3.878906 -1.941406 C 3.878906 -0.855469 4.734375 0 5.820312 0 L 41.511719 0 C 42.601562 0 43.453125 -0.855469 43.453125 -1.941406 L 43.453125 -11.40625 C 43.453125 -12.492188 42.601562 -13.347656 41.511719 -13.347656 Z M 41.511719 -13.347656 "/></g></g></g><path stroke-linecap="butt" transform="matrix(0.748964, 0, 0, 0.748964, 320.814831, 141.825732)" fill="none" stroke-linejoin="miter" d="M 0.00210342 3.998297 L 54.008994 3.998297 " stroke="#191919" stroke-width="8" stroke-opacity="1" stroke-miterlimit="4"/><path stroke-linecap="round" transform="matrix(0.748964, 0, 0, 0.748964, 320.814831, 141.825732)" fill-opacity="1" fill="#191919" fill-rule="nonzero" stroke-linejoin="round" d="M 76.00813 3.998297 L 64.007179 -7.997439 L 52.011443 3.998297 L 64.007179 15.999249 Z M 76.00813 3.998297 " stroke="#191919" stroke-width="8" stroke-opacity="1" stroke-miterlimit="4"/><path stroke-linecap="butt" transform="matrix(0.748964, 0, 0, 0.748964, 46.261768, 141.825732)" fill="none" stroke-linejoin="miter" d="M 25.999388 3.998297 L 80.011494 3.998297 " stroke="#191919" stroke-width="8" stroke-opacity="1" stroke-miterlimit="4"/><path stroke-linecap="round" transform="matrix(0.748964, 0, 0, 0.748964, 46.261768, 141.825732)" fill-opacity="1" fill="#191919" fill-rule="nonzero" stroke-linejoin="round" d="M 4.000251 3.998297 L 16.001203 -7.997439 L 28.002155 3.998297 L 16.001203 15.999249 Z M 4.000251 3.998297 " stroke="#191919" stroke-width="8" stroke-opacity="1" stroke-miterlimit="4"/><g clip-path="url(#74e3c53325)"><path stroke-linecap="butt" transform="matrix(0.748964, 0, 0, 0.748964, 106.228038, 116.735446)" fill="none" stroke-linejoin="miter" d="M 22.544798 17.048162 L 8.937461 17.048162 C 8.238579 17.048162 7.586637 17.694889 7.586637 18.398986 L 7.586637 53.650804 C 7.586637 54.401841 8.238579 55.001628 8.937461 55.001628 L 17.449218 55.001628 C 18.163747 55.001628 18.815689 54.401841 18.815689 53.650804 L 18.815689 46.437715 L 22.544798 46.437715 C 35.401098 46.437715 40.006418 39.062945 40.006418 31.359597 C 40.006418 23.285945 33.826006 17.048162 22.544798 17.048162 Z M 21.845916 37.101903 L 18.815689 37.101903 L 18.815689 26.368327 L 21.741605 26.368327 C 27.431757 26.368327 28.516589 29.784504 28.516589 31.463907 C 28.516589 33.143311 27.760336 37.101903 21.845916 37.101903 Z M 77.798202 53.212699 C 77.360097 52.565972 73.349348 45.561505 70.757226 41.180454 C 74.329869 38.958635 76.170954 35.052197 76.170954 30.32692 C 76.170954 22.253268 70.913692 17.048162 62.073356 17.048162 L 46.781401 17.048162 C 46.030363 17.048162 45.435792 17.642733 45.435792 18.398986 L 45.435792 53.650804 C 45.435792 54.401841 46.030363 55.001628 46.781401 55.001628 L 55.241002 55.001628 C 56.007686 55.001628 56.607473 54.401841 56.607473 53.650804 L 56.607473 43.391842 L 59.53339 43.391842 C 61.969046 47.840695 64.947118 53.264854 65.171386 53.650804 C 65.541689 54.29753 66.256217 55.001628 67.221092 55.001628 L 76.817681 55.001628 C 78.131996 55.001628 78.288462 54.073262 77.798202 53.212699 Z M 66.13626 30.274765 C 66.13626 31.954168 64.733281 34.400255 61.859519 34.400255 L 56.607473 34.400255 L 56.607473 26.05018 L 61.755209 26.05018 C 64.837591 26.05018 66.13626 28.642302 66.13626 30.274765 Z M 103.828949 16.401435 C 92.761579 16.401435 83.493569 25.173969 83.493569 36.017072 C 83.493569 46.870605 92.761579 55.648355 103.828949 55.648355 C 114.828518 55.648355 124.159114 46.870605 124.159114 36.017072 C 124.159114 25.173969 114.828518 16.401435 103.828949 16.401435 Z M 103.828949 46.051766 C 98.503885 46.051766 94.174989 41.550757 94.174989 36.017072 C 94.174989 30.499033 98.503885 26.05018 103.828949 26.05018 C 109.133151 26.05018 113.425538 30.499033 113.425538 36.017072 C 113.425538 41.550757 109.133151 46.051766 103.828949 46.051766 Z M 161.18943 17.048162 L 139.612751 17.048162 C 138.846067 17.048162 138.251496 17.642733 138.251496 18.398986 L 138.251496 25.017503 C 138.251496 25.773756 138.846067 26.368327 139.612751 26.368327 L 151.316417 26.368327 L 151.316417 36.017072 C 151.316417 41.284764 150.403698 45.50935 145.574111 45.50935 C 143.399232 45.50935 141.558147 44.648786 140.634997 41.394291 C 140.473315 40.794504 140.155167 40.41377 139.440639 40.41377 L 130.615949 40.41377 C 129.791894 40.41377 129.525902 40.956186 129.635428 41.707223 C 131.090563 50.500619 137.062354 55.648355 146.007 55.648355 C 159.019766 55.648355 162.540254 46.980131 162.540254 35.80845 L 162.540254 18.398986 C 162.540254 17.642733 161.945683 17.048162 161.18943 17.048162 Z M 194.255937 45.665816 L 179.14131 45.665816 L 179.14131 40.690193 L 191.277865 40.690193 C 191.981963 40.690193 192.628689 40.095622 192.628689 39.328938 L 192.628689 32.720852 C 192.628689 31.954168 191.981963 31.359597 191.277865 31.359597 L 179.14131 31.359597 L 179.14131 26.368327 L 194.099471 26.368327 C 194.798353 26.368327 195.450295 25.773756 195.450295 25.017503 L 195.450295 18.398986 C 195.450295 17.642733 194.798353 17.048162 194.099471 17.048162 L 169.320453 17.048162 C 168.5642 17.048162 167.969628 17.642733 167.969628 18.398986 L 167.969628 53.650804 C 167.969628 54.401841 168.5642 55.001628 169.320453 55.001628 L 194.255937 55.001628 C 195.022621 55.001628 195.622408 54.401841 195.622408 53.650804 L 195.622408 47.032287 C 195.622408 46.276034 195.022621 45.665816 194.255937 45.665816 Z M 229.9928 40.41377 C 228.522018 44.210681 225.543946 45.99961 221.371516 45.99961 C 215.947357 45.99961 212.04092 41.602912 212.04092 35.964916 C 212.04092 30.32692 215.947357 25.945869 221.371516 25.945869 C 225.491791 25.945869 228.417707 27.677427 229.940644 31.359597 C 230.044955 31.688176 230.425689 32.058479 231.077631 32.058479 L 239.641544 32.058479 C 240.460383 32.058479 240.622065 31.359597 240.460383 30.655499 C 238.29072 22.039431 230.743837 16.401435 221.371516 16.401435 C 210.309361 16.401435 201.041351 25.121814 201.041351 35.964916 C 201.041351 46.81845 210.309361 55.596199 221.371516 55.596199 C 230.863794 55.596199 238.39503 49.848677 240.512538 41.112652 C 240.67422 40.41377 240.397797 39.657517 239.641544 39.657517 L 231.181942 39.657517 C 230.587371 39.657517 230.149266 39.923509 229.9928 40.41377 Z M 277.495914 17.048162 L 247.339677 17.048162 C 246.583424 17.048162 245.988853 17.694889 245.988853 18.398986 L 245.988853 25.017503 C 245.988853 25.773756 246.583424 26.368327 247.339677 26.368327 L 256.831955 26.368327 L 256.831955 53.650804 C 256.831955 54.401841 257.426526 55.001628 258.177564 55.001628 L 266.637165 55.001628 C 267.409065 55.001628 268.003636 54.401841 268.003636 53.650804 L 268.003636 26.368327 L 277.495914 26.368327 C 278.246952 26.368327 278.841523 25.773756 278.841523 25.017503 L 278.841523 18.398986 C 278.841523 17.694889 278.246952 17.048162 277.495914 17.048162 Z M 277.495914 17.048162 " stroke="#000000" stroke-width="6.642832" stroke-opacity="1" stroke-miterlimit="4"/></g><g fill="#face00" fill-opacity="1"><g transform="translate(109.879238, 157.928468)"><g><path d="M 13.238281 -28.425781 L 3.046875 -28.425781 C 2.519531 -28.425781 2.03125 -27.9375 2.03125 -27.410156 L 2.03125 -1.015625 C 2.03125 -0.445312 2.519531 0 3.046875 0 L 9.421875 0 C 9.949219 0 10.4375 -0.445312 10.4375 -1.015625 L 10.4375 -6.417969 L 13.238281 -6.417969 C 22.863281 -6.417969 26.316406 -11.9375 26.316406 -17.707031 C 26.316406 -23.757812 21.683594 -28.425781 13.238281 -28.425781 Z M 12.710938 -13.402344 L 10.4375 -13.402344 L 10.4375 -21.441406 L 12.628906 -21.441406 C 16.894531 -21.441406 17.707031 -18.882812 17.707031 -17.625 C 17.707031 -16.367188 17.136719 -13.402344 12.710938 -13.402344 Z M 12.710938 -13.402344 "/></g></g></g><g fill="#face00" fill-opacity="1"><g transform="translate(138.223554, 157.928468)"><g><path d="M 26.273438 -1.339844 C 25.949219 -1.828125 22.945312 -7.066406 20.996094 -10.355469 C 23.675781 -12.019531 25.054688 -14.945312 25.054688 -18.476562 C 25.054688 -24.527344 21.117188 -28.425781 14.496094 -28.425781 L 3.046875 -28.425781 C 2.476562 -28.425781 2.03125 -27.980469 2.03125 -27.410156 L 2.03125 -1.015625 C 2.03125 -0.445312 2.476562 0 3.046875 0 L 9.378906 0 C 9.949219 0 10.394531 -0.445312 10.394531 -1.015625 L 10.394531 -8.691406 L 12.589844 -8.691406 C 14.417969 -5.359375 16.648438 -1.300781 16.8125 -1.015625 C 17.097656 -0.527344 17.625 0 18.355469 0 L 25.542969 0 C 26.515625 0 26.640625 -0.691406 26.273438 -1.339844 Z M 17.542969 -18.519531 C 17.542969 -17.257812 16.488281 -15.429688 14.335938 -15.429688 L 10.394531 -15.429688 L 10.394531 -21.683594 L 14.253906 -21.683594 C 16.570312 -21.683594 17.542969 -19.734375 17.542969 -18.519531 Z M 17.542969 -18.519531 "/></g></g></g><g fill="#face00" fill-opacity="1"><g transform="translate(166.730301, 157.928468)"><g><path d="M 17.257812 -28.914062 C 8.972656 -28.914062 2.03125 -22.335938 2.03125 -14.214844 C 2.03125 -6.089844 8.972656 0.488281 17.257812 0.488281 C 25.503906 0.488281 32.488281 -6.089844 32.488281 -14.214844 C 32.488281 -22.335938 25.503906 -28.914062 17.257812 -28.914062 Z M 17.257812 -6.699219 C 13.277344 -6.699219 10.03125 -10.070312 10.03125 -14.214844 C 10.03125 -18.355469 13.277344 -21.683594 17.257812 -21.683594 C 21.238281 -21.683594 24.445312 -18.355469 24.445312 -14.214844 C 24.445312 -10.070312 21.238281 -6.699219 17.257812 -6.699219 Z M 17.257812 -6.699219 "/></g></g></g><g fill="#face00" fill-opacity="1"><g transform="translate(201.247023, 157.928468)"><g><path d="M 25.707031 -28.425781 L 9.542969 -28.425781 C 8.972656 -28.425781 8.527344 -27.980469 8.527344 -27.410156 L 8.527344 -22.457031 C 8.527344 -21.886719 8.972656 -21.441406 9.542969 -21.441406 L 18.316406 -21.441406 L 18.316406 -14.214844 C 18.316406 -10.273438 17.625 -7.105469 14.011719 -7.105469 C 12.386719 -7.105469 11.003906 -7.757812 10.316406 -10.191406 C 10.191406 -10.640625 9.949219 -10.921875 9.421875 -10.921875 L 2.800781 -10.921875 C 2.191406 -10.921875 1.988281 -10.519531 2.070312 -9.949219 C 3.167969 -3.371094 7.632812 0.488281 14.335938 0.488281 C 24.082031 0.488281 26.71875 -6.011719 26.71875 -14.375 L 26.71875 -27.410156 C 26.71875 -27.980469 26.273438 -28.425781 25.707031 -28.425781 Z M 25.707031 -28.425781 "/></g></g></g><g fill="#face00" fill-opacity="1"><g transform="translate(229.997421, 157.928468)"><g><path d="M 21.726562 -6.984375 L 10.394531 -6.984375 L 10.394531 -10.722656 L 19.492188 -10.722656 C 20.019531 -10.722656 20.507812 -11.167969 20.507812 -11.734375 L 20.507812 -16.691406 C 20.507812 -17.257812 20.019531 -17.707031 19.492188 -17.707031 L 10.394531 -17.707031 L 10.394531 -21.441406 L 21.605469 -21.441406 C 22.132812 -21.441406 22.617188 -21.886719 22.617188 -22.457031 L 22.617188 -27.410156 C 22.617188 -27.980469 22.132812 -28.425781 21.605469 -28.425781 L 3.046875 -28.425781 C 2.476562 -28.425781 2.03125 -27.980469 2.03125 -27.410156 L 2.03125 -1.015625 C 2.03125 -0.445312 2.476562 0 3.046875 0 L 21.726562 0 C 22.292969 0 22.742188 -0.445312 22.742188 -1.015625 L 22.742188 -5.96875 C 22.742188 -6.539062 22.292969 -6.984375 21.726562 -6.984375 Z M 21.726562 -6.984375 "/></g></g></g><g fill="#face00" fill-opacity="1"><g transform="translate(254.76825, 157.928468)"><g><path d="M 23.714844 -10.921875 C 22.617188 -8.082031 20.386719 -6.742188 17.257812 -6.742188 C 13.199219 -6.742188 10.273438 -10.03125 10.273438 -14.253906 C 10.273438 -18.476562 13.199219 -21.765625 17.257812 -21.765625 C 20.34375 -21.765625 22.539062 -20.46875 23.675781 -17.707031 C 23.757812 -17.460938 24.039062 -17.175781 24.527344 -17.175781 L 30.945312 -17.175781 C 31.554688 -17.175781 31.675781 -17.707031 31.554688 -18.234375 C 29.929688 -24.691406 24.285156 -28.914062 17.257812 -28.914062 C 8.972656 -28.914062 2.03125 -22.375 2.03125 -14.253906 C 2.03125 -6.132812 8.972656 0.445312 17.257812 0.445312 C 24.367188 0.445312 30.011719 -3.859375 31.59375 -10.394531 C 31.714844 -10.921875 31.511719 -11.492188 30.945312 -11.492188 L 24.609375 -11.492188 C 24.164062 -11.492188 23.835938 -11.289062 23.714844 -10.921875 Z M 23.714844 -10.921875 "/></g></g></g><g fill="#face00" fill-opacity="1"><g transform="translate(288.432204, 157.928468)"><g><path d="M 25.625 -28.425781 L 3.046875 -28.425781 C 2.476562 -28.425781 2.03125 -27.9375 2.03125 -27.410156 L 2.03125 -22.457031 C 2.03125 -21.886719 2.476562 -21.441406 3.046875 -21.441406 L 10.152344 -21.441406 L 10.152344 -1.015625 C 10.152344 -0.445312 10.597656 0 11.167969 0 L 17.503906 0 C 18.070312 0 18.519531 -0.445312 18.519531 -1.015625 L 18.519531 -21.441406 L 25.625 -21.441406 C 26.191406 -21.441406 26.640625 -21.886719 26.640625 -22.457031 L 26.640625 -27.410156 C 26.640625 -27.9375 26.191406 -28.425781 25.625 -28.425781 Z M 25.625 -28.425781 "/></g></g></g></svg>